<svg width="107" height="31" viewBox="0 0 107 31" fill="none" xmlns="http://www.w3.org/2000/svg">
<path d="M46.7238 26.7494H41.7807L49.3125 4.93172H55.257L62.7781 26.7494H57.8351L52.37 9.9174H52.1995L46.7238 26.7494ZM46.4149 18.1736H58.0907V21.7744H46.4149V18.1736Z" fill="#777E90"/>
<path d="M69.8572 4.93172V26.7494H65.3189V4.93172H69.8572Z" fill="#777E90"/>
<path d="M80.9498 27.069C79.2666 27.069 77.8177 26.7281 76.6033 26.0463C75.3959 25.3574 74.4655 24.3844 73.8121 23.1273C73.1588 21.8632 72.8321 20.3682 72.8321 18.6423C72.8321 16.9591 73.1588 15.4819 73.8121 14.2106C74.4655 12.9394 75.3853 11.9486 76.5713 11.2384C77.7645 10.5282 79.1636 10.1731 80.7687 10.1731C81.8482 10.1731 82.8531 10.3471 83.7835 10.6951C84.721 11.036 85.5377 11.5509 86.2337 12.2398C86.9369 12.9287 87.4837 13.7952 87.8743 14.8392C88.2649 15.8761 88.4603 17.0905 88.4603 18.4826V19.729H74.6431V16.9165H84.1883C84.1883 16.2631 84.0463 15.6843 83.7622 15.1801C83.4781 14.6758 83.084 14.2817 82.5797 13.9976C82.0826 13.7064 81.5037 13.5608 80.8432 13.5608C80.1543 13.5608 79.5436 13.7206 79.0109 14.0402C78.4853 14.3527 78.0734 14.7752 77.7751 15.3079C77.4768 15.8335 77.3241 16.4194 77.317 17.0657V19.7396C77.317 20.5493 77.4662 21.2488 77.7645 21.8383C78.0699 22.4278 78.4995 22.8823 79.0535 23.2019C79.6075 23.5215 80.2644 23.6813 81.0243 23.6813C81.5286 23.6813 81.9902 23.6103 82.4093 23.4682C82.8283 23.3262 83.1869 23.1131 83.4852 22.829C83.7835 22.545 84.0108 22.197 84.167 21.785L88.3644 22.062C88.1513 23.0705 87.7145 23.9512 87.054 24.704C86.4006 25.4497 85.5555 26.0321 84.5186 26.4511C83.4888 26.863 82.2992 27.069 80.9498 27.069Z" fill="#777E90"/>
<path d="M98.8151 27.069C97.1603 27.069 95.7293 26.7175 94.5219 26.0143C93.3217 25.3041 92.3948 24.3169 91.7414 23.0528C91.088 21.7815 90.7613 20.3078 90.7613 18.6317C90.7613 16.9414 91.088 15.4642 91.7414 14.2C92.3948 12.9287 93.3217 11.9415 94.5219 11.2384C95.7293 10.5282 97.1603 10.1731 98.8151 10.1731C100.47 10.1731 101.897 10.5282 103.098 11.2384C104.305 11.9415 105.235 12.9287 105.889 14.2C106.542 15.4642 106.869 16.9414 106.869 18.6317C106.869 20.3078 106.542 21.7815 105.889 23.0528C105.235 24.3169 104.305 25.3041 103.098 26.0143C101.897 26.7175 100.47 27.069 98.8151 27.069ZM98.8364 23.5535C99.5893 23.5535 100.218 23.3404 100.722 22.9143C101.226 22.481 101.606 21.8916 101.862 21.1458C102.125 20.4001 102.256 19.5514 102.256 18.5997C102.256 17.6481 102.125 16.7994 101.862 16.0536C101.606 15.3079 101.226 14.7184 100.722 14.2852C100.218 13.852 99.5893 13.6354 98.8364 13.6354C98.0765 13.6354 97.4373 13.852 96.9189 14.2852C96.4075 14.7184 96.0205 15.3079 95.7577 16.0536C95.502 16.7994 95.3742 17.6481 95.3742 18.5997C95.3742 19.5514 95.502 20.4001 95.7577 21.1458C96.0205 21.8916 96.4075 22.481 96.9189 22.9143C97.4373 23.3404 98.0765 23.5535 98.8364 23.5535Z" fill="#777E90"/>
<path fill-rule="evenodd" clip-rule="evenodd" d="M16.863 0.5C18.2196 0.5 19.4705 1.23278 20.1339 2.41619L32.7473 24.9157C33.76 26.7222 33.1166 29.0077 31.3101 30.0204C29.5035 31.0331 27.2181 30.3897 26.2053 28.5831L16.863 11.9184L7.52059 28.5831C6.50785 30.3897 4.22239 31.0331 2.41588 30.0204C0.609367 29.0077 -0.0341108 26.7222 0.978631 24.9157L13.592 2.41619C14.2554 1.23278 15.5063 0.5 16.863 0.5Z" fill="#777E90"/>
</svg>
