<svg width="113" height="30" viewBox="0 0 113 30" fill="none" xmlns="http://www.w3.org/2000/svg">
<path d="M0.566865 15.0072C0.566865 14.6101 0.55893 14.2092 0.570838 13.8121C0.578776 13.5434 0.614495 13.2748 0.642279 13.0062C0.658155 12.8466 0.697856 12.687 0.713732 12.5273C0.737547 12.3054 0.773267 12.0874 0.860587 11.8772C0.880433 11.8344 0.88837 11.7877 0.896308 11.7409C0.943937 11.3205 1.06301 10.9234 1.20987 10.5302C1.27735 10.3472 1.31703 10.1526 1.3845 9.9696C1.5512 9.52968 1.72982 9.08976 1.90447 8.65374C1.91637 8.63038 1.92431 8.60313 1.93621 8.57977C2.09498 8.29557 2.24978 8.01138 2.41251 7.73108C2.50777 7.55978 2.61493 7.39627 2.71416 7.22497C2.96421 6.78895 3.25792 6.38407 3.56751 5.98698C3.80566 5.68332 4.03588 5.37187 4.30975 5.09546C4.31372 5.09157 4.31768 5.08378 4.32165 5.07988C4.82176 4.58936 5.28217 4.05991 5.85373 3.63945C6.2943 3.31633 6.719 2.96984 7.15957 2.65061C7.40168 2.47542 7.66761 2.33138 7.92958 2.18345C8.20344 2.02772 8.48128 1.88368 8.75515 1.73185C8.80278 1.7046 8.85437 1.68513 8.902 1.65788C9.06077 1.58002 9.21953 1.49826 9.3783 1.4204C9.4418 1.38925 9.50135 1.35811 9.56882 1.34254C9.77125 1.29193 9.95383 1.20628 10.1285 1.09338C10.1999 1.04666 10.2952 1.04278 10.3825 1.01552C10.5373 0.964914 10.696 0.914294 10.8469 0.859791C10.9183 0.836433 10.9818 0.789716 11.0572 0.774143C11.6526 0.645672 12.2241 0.4082 12.8354 0.342018C12.8751 0.338124 12.9188 0.334232 12.9545 0.31866C13.2244 0.197975 13.5102 0.182405 13.7999 0.162939C14.1135 0.139581 14.427 0.0772926 14.7406 0.0422549C14.9112 0.0227895 15.0859 0.0188855 15.2566 0.0188855C15.836 0.0149924 16.4155 0.0227786 16.9911 0.0188855C17.4554 0.0149924 17.9119 0.0617127 18.3683 0.131788C18.5112 0.155147 18.6541 0.162931 18.801 0.178503C18.8565 0.186289 18.9121 0.182399 18.9637 0.194079C19.3646 0.283619 19.7694 0.373157 20.1663 0.470484C20.4799 0.548345 20.7935 0.618422 21.0951 0.727428C21.4285 0.848114 21.7659 0.961015 22.1072 1.07002C22.4089 1.16735 22.6828 1.34643 22.9685 1.49436C23.0043 1.51383 23.04 1.5333 23.0797 1.54887C23.4726 1.69681 23.8378 1.89535 24.195 2.11726C24.457 2.28077 24.7308 2.42092 24.9809 2.59611C25.3103 2.8258 25.6239 3.07884 25.9414 3.328C26.2192 3.54601 26.4971 3.77181 26.767 3.99761C26.8543 4.07158 26.9337 4.15723 27.0091 4.24677C27.1242 4.37914 27.2274 4.52318 27.3465 4.65166C27.6283 4.9631 27.9458 5.25508 28.1482 5.62492C28.3784 6.04927 28.6404 6.47361 28.5769 6.99139C28.561 7.13932 28.569 7.28727 28.5769 7.4352C28.6047 7.98413 28.3546 8.42405 28.0292 8.83671C27.8069 9.11701 27.529 9.33502 27.2393 9.54136C27.1837 9.58029 27.1202 9.60753 27.0567 9.63089C26.9853 9.65814 26.9059 9.66983 26.8424 9.70876C26.4971 9.91898 26.1081 9.92677 25.7231 9.92287C25.5088 9.92287 25.2905 9.91508 25.088 9.86058C24.7586 9.77493 24.449 9.62311 24.1632 9.43235C23.6076 9.06251 23.1908 8.5603 22.7582 8.07366C22.7105 8.01916 22.655 7.96076 22.5994 7.91794C22.3176 7.69993 22.0398 7.48192 21.754 7.27558C21.6111 7.17047 21.4603 7.07704 21.3055 6.9875C21.0157 6.80842 20.7339 6.61377 20.4283 6.46583C20.0949 6.30621 19.7416 6.1972 19.3963 6.06873C19.2376 6.01033 19.0748 5.95583 18.9121 5.90133C18.801 5.86629 18.6898 5.82347 18.5787 5.8079C18.15 5.73782 17.7214 5.67553 17.2927 5.61713C16.9434 5.57041 16.5981 5.53149 16.2488 5.49256C16.1655 5.48478 16.0782 5.47309 16.0027 5.49645C15.6813 5.60545 15.3359 5.58988 15.0065 5.65217C14.6612 5.71835 14.3119 5.74561 13.9666 5.804C13.8316 5.82736 13.7046 5.87797 13.5737 5.91301C13.4109 5.95973 13.2482 6.01423 13.0815 6.04927C12.9108 6.08431 12.7481 6.12324 12.6012 6.22056C12.5099 6.27896 12.4028 6.31399 12.3035 6.35681C12.1646 6.41521 12.0217 6.45803 11.8868 6.52811C11.601 6.67605 11.3073 6.81621 11.0453 6.99918C10.6881 7.24444 10.319 7.48191 9.98955 7.77C9.50531 8.18656 9.06077 8.63816 8.69164 9.14815C8.41777 9.52578 8.1439 9.89951 7.93354 10.3239C7.79065 10.6081 7.66761 10.8961 7.54457 11.1881C7.45328 11.3983 7.36199 11.6047 7.31833 11.8344C7.27864 12.0329 7.18734 12.2159 7.13971 12.4145C7.08018 12.6558 7.04049 12.9011 6.99683 13.1463C6.97699 13.2592 6.97301 13.376 6.94126 13.485C6.83806 13.8121 6.82616 14.1469 6.8341 14.4856C6.846 15.0306 6.846 15.5795 6.85791 16.1246C6.86188 16.2452 6.90157 16.362 6.91744 16.4827C6.95317 16.7007 6.97699 16.9226 7.02462 17.1406C7.07622 17.3859 7.14369 17.6234 7.20719 17.8648C7.24689 18.0088 7.28658 18.149 7.33421 18.2891C7.38184 18.4293 7.43344 18.5655 7.48504 18.7057C7.5406 18.8497 7.59617 18.9937 7.65173 19.1378C7.67555 19.2001 7.68349 19.2701 7.71921 19.3285C7.9653 19.7179 8.13994 20.1461 8.46144 20.4926C8.49716 20.5315 8.51701 20.586 8.54082 20.6327C8.57258 20.6911 8.59639 20.7573 8.64005 20.8118C8.99727 21.2673 9.37036 21.7072 9.82284 22.0771C10.1483 22.3457 10.4777 22.6104 10.8072 22.8751C10.8747 22.9296 10.958 22.9686 11.0334 23.0114C11.1128 23.0542 11.1962 23.0893 11.2676 23.136C11.8272 23.498 12.4385 23.7589 13.0775 23.9535C13.3276 24.0314 13.5736 24.117 13.8277 24.1715C14.3913 24.3 14.9589 24.4012 15.5384 24.4285C16.0464 24.4518 16.5584 24.4324 17.0665 24.4207C17.2808 24.4168 17.4912 24.3818 17.7015 24.3584C17.7372 24.3545 17.773 24.3545 17.8047 24.3467C18.2255 24.2221 18.67 24.2027 19.0828 24.0275C19.436 23.8796 19.8091 23.7744 20.1584 23.6226C20.4561 23.4902 20.7379 23.319 21.0237 23.1554C21.1943 23.0581 21.365 22.953 21.5198 22.8323C21.8532 22.5832 22.1946 22.3379 22.5002 22.0615C22.8653 21.7306 23.1908 21.3646 23.5401 21.022C23.6949 20.8702 23.8735 20.7456 24.0481 20.6133C24.1553 20.5315 24.2664 20.4459 24.3895 20.3875C24.5562 20.3096 24.7388 20.259 24.9134 20.2006C25.0166 20.1656 25.1277 20.1461 25.2309 20.1188C25.6914 19.9904 26.1438 20.0254 26.5884 20.2006C26.6519 20.224 26.7154 20.259 26.7789 20.2746C27.2115 20.3524 27.5052 20.6366 27.8109 20.9091C28.176 21.2362 28.3467 21.6722 28.5094 22.1082C28.5571 22.2367 28.569 22.3885 28.569 22.5248C28.569 22.8751 28.6087 23.2294 28.4697 23.5642C28.3784 23.7822 28.2991 24.0041 28.1998 24.2221C28.1601 24.3117 28.0847 24.3857 28.0252 24.4713C27.5132 25.1876 26.9099 25.8261 26.255 26.4139C25.9811 26.6592 25.7033 26.9084 25.3976 27.1108C24.7904 27.5157 24.1593 27.8855 23.5361 28.2748C23.1868 28.3761 22.909 28.6447 22.5399 28.7031C22.4803 28.7109 22.4287 28.7537 22.3732 28.777C22.2025 28.8471 22.0318 28.9133 21.8612 28.9834C21.8373 28.9951 21.8056 28.9951 21.7818 29.0067C21.4007 29.2014 20.98 29.287 20.5752 29.4155C20.2298 29.5245 19.8687 29.579 19.5114 29.6569C19.4718 29.6647 19.4281 29.6608 19.3884 29.6725C18.6938 29.8866 17.9635 29.8749 17.253 29.9839C17.0784 30.0111 16.8958 29.9956 16.7172 29.9956C16.0583 29.9878 15.3955 30.0228 14.7366 29.9489C14.6532 29.9411 14.5739 29.9294 14.4905 29.9216C14.2246 29.8905 13.9587 29.8671 13.6927 29.8243C13.3792 29.7776 13.0696 29.7231 12.76 29.6569C12.3988 29.5751 12.0416 29.4739 11.6844 29.3805C11.5732 29.3493 11.4581 29.3182 11.347 29.2831C11.1644 29.2286 10.9818 29.1702 10.7992 29.1118C10.6603 29.069 10.5214 29.0301 10.3865 28.9795C10.2475 28.925 10.1126 28.8588 9.97367 28.8004C9.88635 28.7615 9.80299 28.7148 9.70773 28.6914C9.49737 28.6447 9.30288 28.5629 9.11634 28.4617C8.73133 28.2515 8.33443 28.0646 7.95736 27.8505C7.66762 27.6831 7.39771 27.4884 7.1159 27.3055C6.91744 27.1731 6.71105 27.0485 6.52053 26.9045C6.29032 26.7371 6.05615 26.5658 5.84579 26.375C5.40125 25.974 4.9567 25.5691 4.53598 25.1409C4.14304 24.736 3.7501 24.3273 3.43654 23.8562C3.13885 23.4124 2.82927 22.9764 2.54746 22.5209C2.3371 22.19 2.13466 21.8474 1.97987 21.4892C1.82507 21.131 1.65838 20.7768 1.5274 20.4069C1.39641 20.0449 1.2694 19.6828 1.15032 19.3208C1.07888 19.1028 1.01934 18.8808 0.963776 18.6589C0.90027 18.4176 0.836771 18.1762 0.79708 17.9309C0.729605 17.5455 0.654195 17.1601 0.626411 16.7708C0.582751 16.1868 0.578776 15.599 0.558931 15.0111C0.554962 15.0072 0.558927 15.0072 0.566865 15.0072Z" fill="#777E90"/>
<path d="M100.585 24.4791C101.124 24.5024 101.744 24.4518 102.347 24.3078C102.78 24.2066 103.216 24.1248 103.637 23.9574C104.129 23.7628 104.613 23.5525 105.074 23.3034C105.332 23.1632 105.57 22.988 105.812 22.8245C105.975 22.7155 106.145 22.6065 106.288 22.4742C106.78 22.0226 107.273 21.5671 107.741 21.0921C107.995 20.8352 108.273 20.6211 108.578 20.442C108.753 20.3407 108.963 20.3018 109.158 20.2356C109.575 20.0955 109.999 20.0254 110.436 20.1266C110.523 20.1461 110.611 20.1694 110.694 20.1928C110.853 20.2395 111.008 20.2901 111.166 20.333C111.452 20.4108 111.686 20.586 111.893 20.7768C112.055 20.9286 112.174 21.1233 112.305 21.3023C112.536 21.6216 112.683 21.9758 112.738 22.3613C112.742 22.4002 112.762 22.4391 112.782 22.4703C112.917 22.6571 112.917 22.77 112.782 22.9686C112.758 22.9997 112.746 23.0425 112.742 23.0815C112.69 23.681 112.46 24.2027 112.059 24.6543C111.976 24.7516 111.928 24.8762 111.845 24.9735C111.615 25.2499 111.381 25.5263 111.135 25.7872C110.98 25.9507 110.793 26.083 110.634 26.2388C110.249 26.6164 109.821 26.9395 109.364 27.2354C109.043 27.4417 108.733 27.6636 108.412 27.87C108.285 27.9517 108.146 28.0101 108.015 28.0802C107.947 28.1152 107.884 28.1542 107.816 28.1892C107.475 28.3761 107.142 28.5824 106.757 28.6797C106.677 28.6992 106.598 28.7303 106.526 28.7693C106.114 28.9951 105.653 29.0924 105.213 29.2481C104.474 29.5089 103.7 29.6452 102.93 29.7892C102.776 29.8204 102.617 29.8165 102.458 29.836C101.748 29.9216 101.033 29.945 100.315 29.9489C99.6995 29.9527 99.0923 29.8866 98.481 29.8437C97.6118 29.7854 96.7703 29.5712 95.9329 29.361C95.3256 29.2092 94.7461 28.9717 94.1626 28.7498C93.861 28.6369 93.5673 28.5123 93.2815 28.3683C92.7695 28.1113 92.2376 27.8855 91.7693 27.5507C91.547 27.3911 91.2969 27.2743 91.0747 27.1186C90.8286 26.9473 90.5865 26.7643 90.3563 26.5736C90.0308 26.3049 89.7014 26.0363 89.3957 25.7443C89.0782 25.4446 88.7805 25.1253 88.4828 24.81C88.2566 24.5647 88.0423 24.3117 87.8279 24.0547C87.7009 23.899 87.5858 23.7277 87.4707 23.5603C87.181 23.1243 86.8952 22.6883 86.6094 22.2522C86.5975 22.2367 86.5856 22.2172 86.5777 22.1977C86.4268 21.7111 86.1331 21.2907 85.9386 20.8196C85.7283 20.3135 85.502 19.8113 85.3711 19.2818C85.2083 18.6434 84.986 18.0166 84.9503 17.347C84.9344 17.0511 84.8511 16.763 84.8154 16.4671C84.7797 16.179 84.7559 15.891 84.7479 15.599C84.736 15.1941 84.732 14.7892 84.7479 14.3843C84.7638 14.0301 84.7598 13.6719 84.8511 13.3215C84.9146 13.0763 84.9424 12.8154 84.9583 12.5624C84.9861 12.1341 85.121 11.7293 85.2123 11.3166C85.3195 10.8339 85.4822 10.3706 85.6489 9.90341C85.768 9.56861 85.9228 9.24158 86.0696 8.91457C86.2204 8.57587 86.3713 8.23717 86.5419 7.90626C86.6729 7.65321 86.8238 7.41184 86.9786 7.17436C87.2365 6.79284 87.4985 6.41521 87.7724 6.04147C87.9549 5.79232 88.1534 5.54706 88.3598 5.31347C88.6257 5.0137 88.9036 4.72172 89.1854 4.43753C89.495 4.12998 89.8125 3.83411 90.1816 3.59274C90.4317 3.42923 90.642 3.21122 90.8842 3.03213C91.1541 2.83748 91.4398 2.66229 91.7177 2.47931C91.8129 2.41313 91.9003 2.33527 92.0034 2.27688C92.2614 2.13283 92.5194 2.00047 92.7814 1.86421C93.091 1.7046 93.4006 1.54108 93.7181 1.40093C94.0713 1.2491 94.4325 1.12841 94.7937 0.992154C94.8056 0.988261 94.8215 0.988261 94.8334 0.980475C95.2581 0.778035 95.7146 0.68071 96.1631 0.556131C96.4687 0.474377 96.7783 0.415989 97.0879 0.345914C97.8341 0.178512 98.5922 0.0811846 99.3542 0.0539331C99.8782 0.0344677 100.398 0.00332069 100.922 0.0149999C101.66 0.0305722 102.395 0.0967503 103.121 0.217436C103.494 0.279725 103.867 0.345906 104.232 0.447126C104.732 0.587276 105.248 0.696283 105.725 0.910403C105.8 0.94544 105.883 0.953224 105.959 0.980475C106.098 1.03109 106.241 1.08559 106.38 1.14399C106.495 1.19071 106.606 1.24131 106.721 1.28803C106.88 1.35421 107.031 1.43208 107.193 1.48269C107.519 1.58391 107.781 1.79802 108.086 1.94207C108.348 2.06664 108.598 2.23016 108.84 2.38978C109.19 2.61947 109.531 2.85305 109.868 3.09831C110.238 3.36693 110.595 3.65113 110.916 3.97815C111.158 4.22731 111.404 4.46868 111.643 4.72173C111.952 5.04875 112.218 5.40691 112.421 5.8079C112.516 5.99477 112.591 6.18942 112.675 6.38018C112.694 6.43079 112.71 6.50086 112.746 6.52033C112.881 6.58651 112.873 6.69941 112.873 6.81231C112.873 7.07704 112.873 7.33787 112.873 7.6026C112.873 7.68046 112.849 7.73497 112.79 7.79726C112.722 7.86733 112.675 7.96466 112.647 8.0581C112.544 8.38512 112.341 8.65763 112.135 8.93014C112.087 8.99632 112.036 9.05862 111.976 9.11701C111.905 9.18709 111.829 9.25716 111.746 9.31945C111.658 9.38174 111.567 9.44792 111.468 9.48685C111.039 9.66204 110.638 9.91898 110.142 9.88784C110.039 9.88005 109.936 9.88005 109.833 9.88784C109.559 9.89952 109.297 9.86837 109.059 9.71654C109.027 9.69318 108.983 9.6854 108.944 9.67372C108.451 9.50632 108.051 9.21044 107.705 8.82892C107.376 8.46686 107.062 8.08923 106.661 7.79336C106.388 7.59092 106.137 7.35734 105.86 7.1588C105.618 6.98361 105.352 6.83566 105.098 6.67605C104.998 6.61376 104.903 6.55147 104.8 6.49697C104.709 6.45025 104.617 6.40743 104.522 6.3685C104.347 6.29453 104.169 6.21667 103.99 6.15438C103.641 6.0298 103.3 5.87797 102.938 5.80011C102.375 5.67942 101.799 5.59767 101.228 5.5237C100.505 5.43027 99.7869 5.48088 99.0724 5.61325C98.7906 5.66775 98.5009 5.70668 98.2151 5.74561C97.9809 5.77675 97.7587 5.83125 97.5443 5.93247C97.4133 5.99086 97.2704 6.01811 97.1355 6.06483C96.9609 6.12323 96.7862 6.18941 96.6155 6.2517C96.5719 6.26728 96.5322 6.29842 96.4846 6.31399C96.0083 6.45025 95.6114 6.73834 95.1946 6.97971C94.8771 7.16657 94.6032 7.41963 94.3095 7.64543C94.1706 7.75444 94.0158 7.84787 93.8927 7.97245C93.7062 8.15153 93.5395 8.34618 93.3688 8.54083C93.1148 8.83282 92.8647 9.12869 92.6266 9.43235C92.5155 9.5764 92.4242 9.73601 92.3329 9.89563C92.2098 10.1059 92.0868 10.3161 91.9876 10.538C91.8407 10.8728 91.7137 11.2115 91.5788 11.5502C91.3208 12.1964 91.158 12.8621 91.0786 13.5473C91.031 13.9756 91.031 14.4077 91.0032 14.8398C90.9715 15.381 91.0191 15.9182 91.0667 16.4555C91.0905 16.7085 91.1461 16.9616 91.2017 17.2107C91.2572 17.4599 91.3247 17.709 91.3843 17.9582C91.3882 17.9777 91.3922 17.9971 91.3962 18.0166C91.5311 18.3631 91.6621 18.7095 91.809 19.0521C91.9558 19.3869 92.1066 19.7179 92.2852 20.0371C92.4202 20.2785 92.5869 20.5043 92.7536 20.7262C92.9878 21.0337 93.2299 21.3374 93.4839 21.6294C93.6387 21.8084 93.8253 21.9642 94.0078 22.116C94.3531 22.3963 94.6985 22.6727 95.0557 22.9296C95.2462 23.0659 95.4685 23.1671 95.6788 23.28C95.8614 23.3773 96.044 23.4708 96.2266 23.5603C96.5957 23.7433 96.9847 23.8757 97.3776 24.008C97.8896 24.1793 98.4215 24.2533 98.9454 24.3584C99.4852 24.4752 99.9933 24.483 100.585 24.4791Z" fill="#777E90"/>
<path d="M70.709 29.9411C69.9192 29.9878 69.1611 29.8671 68.403 29.7776C68.272 29.762 68.145 29.727 68.022 29.6958C67.4107 29.5401 66.7836 29.4233 66.1922 29.2014C65.827 29.0651 65.4381 28.9795 65.1086 28.7615C65.0808 28.742 65.0491 28.7264 65.0173 28.7187C64.7871 28.6525 64.5768 28.5357 64.3585 28.4384C63.9973 28.2787 63.6758 28.0646 63.3384 27.87C63.0249 27.687 62.7272 27.4884 62.4493 27.251C62.1596 27.0018 61.846 26.7838 61.5563 26.5346C61.4213 26.4217 61.3142 26.2777 61.1951 26.1492C60.8339 25.7677 60.5005 25.3628 60.2743 24.8879C60.0917 24.5025 60.0083 24.0976 60.0361 23.6693C60.0679 23.2022 60.2068 22.77 60.4489 22.369C60.5084 22.2717 60.5799 22.1783 60.6593 22.0926C60.9173 21.8201 61.1911 21.5749 61.5483 21.4191C61.9095 21.2634 62.2787 21.1622 62.6637 21.1388C63.1082 21.1155 63.5369 21.1817 63.9377 21.4036C64.2434 21.5749 64.4895 21.8007 64.7395 22.0304C65.0689 22.3379 65.4063 22.6338 65.7516 22.9219C65.8905 23.0387 66.0533 23.1321 66.2121 23.2294C66.5494 23.4358 66.8828 23.6577 67.2321 23.8406C67.5099 23.9847 67.8116 24.0859 68.1013 24.2105C68.1133 24.2144 68.1291 24.2183 68.141 24.2222C68.9468 24.5647 69.8041 24.6115 70.6654 24.6426C71.2766 24.666 71.872 24.5414 72.4674 24.4557C72.5984 24.4363 72.7254 24.3701 72.8484 24.3117C73.0786 24.2027 73.3247 24.117 73.5231 23.9691C74.5154 23.2411 74.952 22.2717 74.7814 21.0571C74.7456 20.7885 74.706 20.5159 74.5393 20.2901C74.4003 20.0994 74.2455 19.9164 74.0907 19.7373C74.0352 19.6712 73.9558 19.6205 73.9002 19.5505C73.666 19.2663 73.3366 19.0989 73.035 18.9042C72.7849 18.7446 72.4991 18.6317 72.2292 18.4954C71.9435 18.3514 71.6577 18.1996 71.3679 18.0633C71.0345 17.9076 70.6892 17.7713 70.3518 17.6234C70.3399 17.6195 70.324 17.6156 70.3121 17.6117C70.0025 17.4677 69.693 17.3236 69.3794 17.1835C69.1293 17.0706 68.8753 16.9655 68.6253 16.8526C68.2006 16.6579 67.7798 16.4594 67.3591 16.2608C67.2797 16.2219 67.1924 16.1985 67.1091 16.1674C67.0138 16.1285 66.9146 16.0973 66.8233 16.0506C66.3946 15.8209 65.9699 15.5873 65.5413 15.3537C65.4817 15.3226 65.4222 15.2837 65.3666 15.2447C65.065 15.0462 64.7554 14.8554 64.4617 14.6452C64.1441 14.4194 63.8385 14.1819 63.5408 13.9328C63.3305 13.7576 63.1479 13.5551 62.9494 13.3683C62.5327 12.979 62.1913 12.5351 61.8659 12.0719C61.5999 11.6903 61.4213 11.2699 61.2308 10.8494C61.1197 10.6081 61.0363 10.3628 61.0085 10.0981C60.9847 9.87617 60.9292 9.65816 60.8815 9.44404C60.8061 9.12481 60.7744 8.80557 60.7783 8.47855C60.7783 8.21383 60.7505 7.9491 60.7744 7.68826C60.7982 7.40017 60.8657 7.11597 60.9173 6.83178C60.9609 6.57094 61.0006 6.314 61.0522 6.05316C61.076 5.92859 61.0959 5.79623 61.1475 5.68333C61.3697 5.20448 61.596 4.72952 61.8301 4.25457C61.8976 4.1222 61.981 3.99373 62.0723 3.87694C62.5128 3.31244 62.9733 2.76742 63.525 2.30414C63.8623 2.01995 64.2354 1.77078 64.6125 1.54109C64.8903 1.36979 65.1801 1.21797 65.4698 1.05835C65.5214 1.0311 65.5889 1.01942 65.6445 0.999959C65.7913 0.941563 65.9342 0.879273 66.0811 0.816984C66.1327 0.797518 66.1803 0.766369 66.2319 0.750796C66.6883 0.618432 67.1249 0.443244 67.5933 0.338131C68.1371 0.213553 68.6848 0.108447 69.2405 0.065623C69.9827 0.0072269 70.7249 -0.035596 71.4671 0.0422655C71.9038 0.0889825 72.3483 0.104549 72.7809 0.182411C73.281 0.271951 73.7692 0.419885 74.2614 0.544464C74.4083 0.583395 74.5512 0.634003 74.694 0.676827C74.7218 0.684613 74.7496 0.68462 74.7734 0.696299C75.1227 0.852023 75.472 1.00774 75.8173 1.16736C75.861 1.18682 75.9007 1.21408 75.9443 1.23355C76.4008 1.42431 76.8135 1.69682 77.2224 1.97323C77.6947 2.29246 78.1075 2.67788 78.5044 3.08276C78.6552 3.23848 78.7981 3.40588 78.9569 3.55382C79.1593 3.74847 79.2823 3.98984 79.4133 4.22343C79.4808 4.34411 79.5165 4.48815 79.5443 4.62441C79.6475 5.11494 79.6435 5.60158 79.5245 6.08821C79.5046 6.16607 79.4848 6.24783 79.4451 6.3179C79.2069 6.74614 78.9211 7.13934 78.5163 7.43521C77.8852 7.8946 77.1827 8.0036 76.4246 7.8907C76.377 7.88291 76.3293 7.86734 76.2817 7.86734C75.9046 7.87123 75.6069 7.68827 75.3331 7.47415C74.9322 7.16659 74.5472 6.83957 74.1582 6.52034C74.1225 6.48919 74.0828 6.45805 74.0431 6.43859C73.7692 6.29844 73.539 6.0921 73.2533 5.96363C73.0746 5.88188 72.9079 5.77287 72.7135 5.71837C72.5825 5.67943 72.4594 5.61714 72.3324 5.56653C72.257 5.53539 72.1776 5.50035 72.0982 5.48868C71.5386 5.41081 70.9829 5.27456 70.4193 5.3096C69.9589 5.34074 69.5024 5.41471 69.05 5.50035C68.8674 5.53539 68.7007 5.65218 68.5181 5.71837C68.2125 5.82348 67.9783 6.02981 67.7362 6.23225C67.5219 6.41134 67.3552 6.62545 67.2321 6.86293C67.1289 7.06537 67.0654 7.29116 67.0059 7.51307C66.863 8.05421 66.9384 8.59535 67.1329 9.10535C67.252 9.4129 67.4861 9.66595 67.7481 9.88006C67.9465 10.0436 68.149 10.211 68.3673 10.3472C68.657 10.5263 68.9626 10.682 69.2603 10.8456C69.304 10.8689 69.3476 10.8845 69.3873 10.9078C69.7287 11.1258 70.1058 11.2777 70.4788 11.4334C70.84 11.5852 71.1893 11.7565 71.5426 11.92C71.5664 11.9317 71.5902 11.9473 71.618 11.9512C72.13 12.0719 72.5825 12.3327 73.0548 12.5468C73.5906 12.7882 74.1344 13.0179 74.6702 13.2631C74.9481 13.3916 75.214 13.5512 75.4839 13.6914C75.7379 13.8238 75.9959 13.9522 76.2499 14.0846C76.3095 14.1157 76.369 14.1547 76.4246 14.1897C76.5476 14.2637 76.6707 14.3376 76.7897 14.4155C76.9445 14.5128 77.1073 14.6063 77.2541 14.7114C77.5081 14.8943 77.7661 15.0773 78.0043 15.2798C78.3536 15.5756 78.6909 15.8793 79.0204 16.1985C79.2149 16.3854 79.3855 16.6034 79.5483 16.8175C79.7229 17.0433 79.9015 17.2691 80.0325 17.5222C80.1952 17.8375 80.4175 18.1295 80.485 18.4915C80.4929 18.5461 80.5009 18.6044 80.5286 18.6473C80.735 18.9626 80.7628 19.3208 80.8144 19.675C80.8422 19.8541 80.8898 20.0332 80.9097 20.2123C80.9573 20.6872 81.0446 21.1583 80.9732 21.641C80.8898 22.2133 80.8303 22.7934 80.7509 23.3657C80.7311 23.5058 80.6795 23.6382 80.6398 23.7745C80.5882 23.9341 80.5286 24.0937 80.4731 24.2533C80.4612 24.2844 80.4572 24.3195 80.4413 24.3506C80.1754 24.8645 79.9571 25.4018 79.6316 25.8923C79.1434 26.6281 78.4885 27.2043 77.8495 27.796C77.5597 28.0646 77.1866 28.2515 76.8374 28.4539C76.4484 28.6797 76.0277 28.8471 75.6189 29.0418C75.1743 29.252 74.702 29.3805 74.2376 29.5128C73.6303 29.688 73.0111 29.8165 72.3761 29.8593C71.8125 29.9022 71.2528 29.98 70.709 29.9411Z" fill="#777E90"/>
<path d="M44.6399 28.4539C42.0996 28.4539 39.5554 28.4539 37.0152 28.4578C36.7096 28.4578 36.4119 28.415 36.1142 28.3488C35.9197 28.306 35.7451 28.2125 35.5704 28.1113C35.0346 27.7999 34.6774 27.3405 34.4273 26.7916C34.3678 26.667 34.3559 26.5191 34.3321 26.3789C34.2686 25.9896 34.2726 25.6003 34.3242 25.2071C34.3599 24.9502 34.4472 24.7166 34.5821 24.4869C34.7806 24.1521 35.0386 23.8873 35.3442 23.646C35.8681 23.2333 36.4714 23.0659 37.1263 23.0659C39.3768 23.062 41.6313 23.062 43.8818 23.062C46.6721 23.062 49.4623 23.0659 52.2526 23.0659C52.5503 23.0659 52.8401 23.1087 53.1258 23.1983C53.4553 23.2995 53.7728 23.4124 54.0506 23.6304C54.265 23.7978 54.4436 23.9886 54.5984 24.2027C54.6222 24.2338 54.6341 24.2767 54.6619 24.3078C55.031 24.7049 55.027 25.2071 55.0707 25.6976C55.1025 26.0324 55.0112 26.3556 54.9516 26.6787C54.9477 26.7098 54.9318 26.7449 54.9199 26.776C54.6222 27.4339 54.1657 27.9478 53.491 28.2515C53.1774 28.3916 52.8321 28.4384 52.4868 28.4578C52.2963 28.4695 52.1018 28.4617 51.9073 28.4617C49.4901 28.4578 47.065 28.4578 44.6399 28.4539Z" fill="#777E90"/>
<path d="M44.644 17.6662C42.1355 17.6662 39.631 17.6662 37.1225 17.6662C36.9717 17.6662 36.8209 17.6623 36.67 17.6545C35.8484 17.6234 35.2412 17.2107 34.7728 16.5878C34.4434 16.1557 34.2648 15.6652 34.2965 15.1162C34.3084 14.9216 34.2925 14.723 34.3164 14.5284C34.3997 13.8627 34.7569 13.3527 35.265 12.9205C35.519 12.7025 35.8087 12.5585 36.1183 12.4378C36.4319 12.3171 36.7653 12.3015 37.0947 12.3015C42.0006 12.2977 46.9024 12.3015 51.8082 12.3015C52.1059 12.3015 52.3996 12.3093 52.6973 12.3288C53.3363 12.3716 53.8722 12.6286 54.3207 13.0724C54.5311 13.2826 54.7057 13.5123 54.8486 13.7692C55.0232 14.0846 55.0629 14.4349 55.0828 14.7892C55.1066 15.1707 55.047 15.5445 54.9716 15.9143C54.9637 15.961 54.9478 16.0078 54.924 16.0467C54.6938 16.4321 54.4596 16.8097 54.0984 17.0939C53.9516 17.2068 53.8126 17.3236 53.6301 17.382C53.5149 17.4209 53.4078 17.4949 53.2927 17.5338C53.1577 17.5806 53.0148 17.6195 52.8759 17.6351C52.6854 17.6584 52.4909 17.6584 52.3004 17.6584C49.7403 17.6662 47.1922 17.6662 44.644 17.6662Z" fill="#777E90"/>
<path d="M44.6597 6.90185C42.1235 6.90185 39.5912 6.89795 37.0549 6.90574C36.6104 6.90574 36.1976 6.80842 35.7848 6.66827C35.757 6.66048 35.7332 6.6488 35.7094 6.63323C35.1537 6.28675 34.6774 5.8624 34.4393 5.2434C34.3599 5.03707 34.3162 4.81126 34.3043 4.59325C34.2765 4.21562 34.2606 3.838 34.3678 3.46816C34.3996 3.35915 34.4313 3.24625 34.4869 3.14892C34.6218 2.91534 34.7211 2.66229 34.9155 2.46374C35.1378 2.23794 35.3799 2.04329 35.6578 1.89535C35.88 1.77856 36.0983 1.63841 36.3603 1.61505C36.5945 1.59559 36.8287 1.56444 37.0589 1.56444C42.1235 1.56055 47.1841 1.56055 52.2487 1.56444C52.4908 1.56444 52.7289 1.5917 52.971 1.61117C53.1854 1.63063 53.3918 1.68902 53.5704 1.80971C53.5982 1.82917 53.6299 1.84474 53.6617 1.85642C54.126 2.0355 54.4317 2.3781 54.6976 2.77519C55.1104 3.3903 55.1302 4.07158 55.035 4.76455C54.9397 5.46919 54.5428 5.99477 53.9713 6.40354C53.8998 6.45415 53.8323 6.51643 53.7529 6.55537C53.6458 6.61376 53.5346 6.67216 53.4195 6.7072C53.1893 6.77728 52.975 6.89406 52.7249 6.89406C52.5662 6.89406 52.4074 6.90964 52.2487 6.90964C49.7164 6.90185 47.188 6.90185 44.6597 6.90185Z" fill="#777E90"/>
</svg>
