<svg width="40" height="40" viewBox="0 0 40 40" fill="none" xmlns="http://www.w3.org/2000/svg">
<path fill-rule="evenodd" clip-rule="evenodd" d="M20.0002 36.6666C29.2049 36.6666 36.6668 29.2047 36.6668 20C36.6668 10.7952 29.2049 3.33331 20.0002 3.33331C10.7954 3.33331 3.3335 10.7952 3.3335 20C3.3335 29.2047 10.7954 36.6666 20.0002 36.6666ZM20.0002 6.66665C19.0797 6.66665 18.3335 7.41284 18.3335 8.33331V9.99998C15.5721 9.99998 13.3335 12.2386 13.3335 15V15.9308C13.3335 18.0829 14.7106 19.9936 16.7524 20.6742L22.1939 22.488C22.8744 22.7149 23.3335 23.3518 23.3335 24.0692V25C23.3335 25.9205 22.5873 26.6666 21.6668 26.6666H18.3335C17.413 26.6666 16.6668 25.9205 16.6668 25C16.6668 24.0795 15.9206 23.3333 15.0002 23.3333C14.0797 23.3333 13.3335 24.0795 13.3335 25C13.3335 27.7614 15.5721 30 18.3335 30V31.6666C18.3335 32.5871 19.0797 33.3333 20.0002 33.3333C20.9206 33.3333 21.6668 32.5871 21.6668 31.6666V30C24.4283 30 26.6668 27.7614 26.6668 25V24.0692C26.6668 21.917 25.2897 20.0063 23.248 19.3258L17.8064 17.5119C17.1259 17.2851 16.6668 16.6482 16.6668 15.9308V15C16.6668 14.0795 17.413 13.3333 18.3335 13.3333H21.6668C22.5873 13.3333 23.3335 14.0795 23.3335 15C23.3335 15.9205 24.0797 16.6666 25.0002 16.6666C25.9206 16.6666 26.6668 15.9205 26.6668 15C26.6668 12.2386 24.4283 9.99998 21.6668 9.99998V8.33331C21.6668 7.41284 20.9206 6.66665 20.0002 6.66665Z" fill="#FECB33"/>
</svg>
