<?xml version="1.0" encoding="utf-8"?>
<!-- Generator: Adobe Illustrator 24.0.0, SVG Export Plug-In . SVG Version: 6.00 Build 0)  -->
<svg version="1.1" id="Layer_1" xmlns="http://www.w3.org/2000/svg" xmlns:xlink="http://www.w3.org/1999/xlink" x="0px" y="0px"
	 viewBox="0 0 3000 3000" style="enable-background:new 0 0 3000 3000;" xml:space="preserve">
<style type="text/css">
	.st0{fill:#B1B5C4;}
	.st1{fill-rule:evenodd;clip-rule:evenodd;fill:#141416;}
</style>
<path class="st0" d="M1500,3000c828.45,0,1500-671.55,1500-1500S2328.45,0,1500,0S0,671.55,0,1500S671.55,3000,1500,3000z"/>
<path class="st1" d="M866.55,2002.95c-44.85-27.45-72.3-76.2-72.3-128.7v-293.1c0-34.8,28.35-63,63.15-62.85c11.1,0,22.05,3,31.65,8.55
	l661.35,385.65c38.7,22.5,62.55,63.9,62.55,108.75v303.6c0.15,41.7-33.6,75.6-75.3,75.6c-13.95,0-27.75-3.9-39.6-11.1L866.55,2002.95z
	 M1852.35,1446.6c38.7,22.5,62.4,64.05,62.55,108.75v616.2c0,18.15-9.75,34.95-25.65,43.8l-144.75,81.45c-1.8,1.05-3.75,1.8-5.85,2.4v-342.15
	c0-44.25-23.25-85.35-61.35-108.15L1096.5,1501.5v-386.25c0-34.8,28.35-63,63.15-62.85c11.1,0,22.05,3,31.65,8.55L1852.35,1446.6z M2141.85,991.5
	c38.85,22.5,62.7,64.05,62.7,108.9v900c-0.15,18.45-10.35,35.4-26.55,44.25l-137.25,74.1V1492.2c0-44.25-23.25-85.2-61.05-108L1386,1028.1V661.8
	c0-11.1,3-22.05,8.4-31.65c17.55-30,56.1-40.2,86.1-22.8L2141.85,991.5z"/>
</svg>
