<svg width="40" height="40" viewBox="0 0 40 40" fill="none" xmlns="http://www.w3.org/2000/svg">
<path d="M1.66675 33.3333C1.66675 32.4128 2.41294 31.6666 3.33341 31.6666H26.6667C27.5872 31.6666 28.3334 32.4128 28.3334 33.3333C28.3334 34.2538 27.5872 35 26.6667 35H3.33341C2.41294 35 1.66675 34.2538 1.66675 33.3333Z" fill="#FECB33"/>
<path d="M38.3333 15C38.3333 11.3181 35.3486 8.33337 31.6667 8.33337C30.7462 8.33337 30 9.07957 30 10C30 10.9205 30.7462 11.6667 31.6667 11.6667C33.5076 11.6667 35 13.1591 35 15C35 16.841 33.5076 18.3334 31.6667 18.3334C30.7462 18.3334 30 19.0796 30 20C30 20.9205 30.7462 21.6667 31.6667 21.6667C35.3486 21.6667 38.3333 18.6819 38.3333 15Z" fill="#FECB33"/>
<path d="M1.66675 8.33333C1.66675 6.49238 3.15913 5 5.00008 5H23.3334C25.1744 5 26.6667 6.49238 26.6667 8.33333V16.6667C26.6667 22.1895 22.1896 26.6667 16.6667 26.6667H11.6667C6.1439 26.6667 1.66675 22.1895 1.66675 16.6667V8.33333Z" fill="#FECB33"/>
</svg>
