<svg width="117" height="40" viewBox="0 0 117 40" fill="none" xmlns="http://www.w3.org/2000/svg">
<path d="M18.7819 5.28491C24.2891 4.32994 32.8965 8.32976 34.0866 17.8795C35.7393 17.8795 37.4077 17.8795 39.0477 17.8795C40.5425 23.0458 35.6777 32.6586 30.1831 35.4193C29.8832 34.297 29.588 33.1921 29.2928 32.0872C28.9266 30.7155 28.5399 29.3485 28.21 27.9674C28.1516 27.7212 28.259 27.3786 28.3994 27.1498C29.1539 25.9264 29.9384 24.7189 30.7308 23.5193C30.8555 23.3299 31.0718 23.0868 31.2596 23.0726C31.9889 23.0205 32.7244 23.0521 33.5594 23.0521C33.1017 24.7221 32.4135 26.1853 31.4001 27.4654C30.966 28.0148 30.9029 28.4914 31.1223 29.1118C31.3306 29.7021 31.4601 30.3193 31.6274 30.9333C33.8893 29.6421 36.74 23.5745 36.5206 20.476C34.8853 20.476 33.2406 20.476 31.5201 20.476C31.7821 16.4825 30.554 13.1393 27.6039 10.5159C25.8502 8.95641 23.7872 8.05196 21.3374 7.75836C21.3374 8.52865 21.2916 9.23422 21.3658 9.92717C21.3863 10.1197 21.7368 10.377 21.9767 10.4339C26.2843 11.4599 29.1824 15.2103 28.9835 19.6142C28.8651 22.2502 27.7681 24.4459 25.7161 26.1048C25.1683 26.5468 25.0973 26.9051 25.2772 27.5475C26.1217 30.5608 26.9062 33.5899 27.7097 36.6126C27.716 36.6379 27.7112 36.6647 27.7112 36.8099C22.616 38.9393 17.5175 38.9361 12.3228 36.7736C12.82 34.9063 13.2983 33.1084 13.7782 31.3106C14.1444 29.9389 14.4979 28.5625 14.8894 27.1987C15.0078 26.7851 14.9304 26.542 14.5895 26.2611C11.7009 23.8871 10.5486 20.8138 11.3836 17.1897C12.2186 13.5639 14.599 11.3052 18.2389 10.4496C18.7219 10.336 18.7898 10.0992 18.785 9.68251C18.7708 8.21296 18.7819 6.74183 18.7819 5.28491ZM24.6932 35.1778C23.8014 31.8378 22.9348 28.5972 22.073 25.3693C25.7066 23.2762 27.0404 20.8122 26.2685 17.6727C25.5992 14.9514 23.1937 12.9468 20.4456 12.8173C17.5128 12.68 14.9099 14.4416 14.0133 17.1755C13.5651 18.5456 13.5619 19.9204 14.0339 21.281C14.711 23.2336 16.0969 24.52 18.0132 25.2998C17.1324 28.6098 16.269 31.8504 15.3882 35.1557C18.5056 36.0617 21.5426 36.0586 24.6932 35.1778Z" fill="#777E90"/>
<path d="M6.07053 20.4808C4.35001 20.4808 2.69894 20.4808 1.05892 20.4808C0.135522 12.9752 5.2592 2.57154 16.3337 0.385371C27.8975 -1.89708 37.1488 6.3267 38.7762 15.3539C38.0107 15.3539 37.2578 15.3997 36.5175 15.3223C36.3359 15.3034 36.126 14.9072 36.0455 14.6483C34.2587 8.93589 30.5604 5.06077 24.8479 3.28184C15.1498 0.260669 4.89932 6.90599 3.61918 16.9624C3.58288 17.2433 3.57972 17.529 3.55604 17.9031C5.25604 17.9031 6.89923 17.9031 8.54714 17.9031C8.60554 18.9812 8.58818 19.9804 8.72708 20.9559C9.05856 23.2857 10.0735 25.3077 11.6535 27.0519C11.824 27.2413 12.0276 27.5649 11.9771 27.7654C11.3347 30.3083 10.6481 32.8401 9.93934 35.4998C5.36022 32.4913 2.52373 28.4267 1.29885 23.0552C2.14332 23.0552 2.89783 23.0173 3.64128 23.0852C3.80702 23.101 4.00748 23.4688 4.07694 23.7071C4.79987 26.1695 5.99161 28.3699 7.6995 30.2862C7.90786 30.5198 8.13043 30.7392 8.46348 31.0896C8.7334 30.0825 8.98437 29.1939 9.20062 28.2973C9.22903 28.1821 9.10749 28.0069 9.01594 27.8885C7.34593 25.7354 6.38307 23.2967 6.07053 20.4808Z" fill="#777E90"/>
<path d="M47.0947 16.1526C47.0947 11.7219 47.0947 7.39689 47.0947 3.09085C49.1878 3.09085 51.2587 2.87302 53.2665 3.13978C56.7218 3.59754 58.7548 6.70395 58.3065 10.4133C57.8724 14.0075 55.5205 16.1179 51.8948 16.151C50.3211 16.1652 48.7458 16.1526 47.0947 16.1526ZM49.6581 13.8386C52.6193 14.2032 54.2309 13.6776 55.1417 12.0912C56.0714 10.4702 55.942 7.91147 54.8323 6.55558C53.4259 4.83663 51.5081 5.26439 49.6581 5.26123C49.6581 8.17349 49.6581 10.9863 49.6581 13.8386Z" fill="#777E90"/>
<path d="M69.6636 26.4142C70.3818 26.4142 71.0337 26.4142 71.7645 26.4142C71.7645 26.8672 71.7645 27.2981 71.7645 27.8822C71.9744 27.7133 72.0723 27.6517 72.1496 27.5712C74.0059 25.6344 76.9655 25.7986 78.6182 27.9327C80.0924 29.8363 80.0609 32.8969 78.5471 34.7753C76.9703 36.7342 74.178 36.8099 72.4843 34.941C72.4038 34.8511 72.3359 34.75 72.1149 34.4643C72.1149 35.6056 72.1149 36.4879 72.1149 37.3703C72.1149 38.2321 72.1149 39.094 72.1149 40C71.2625 40 70.4875 40 69.6651 40C69.6636 35.4777 69.6636 30.9901 69.6636 26.4142ZM72.1133 31.0738C72.1133 31.2837 72.1117 31.4937 72.1133 31.7036C72.1212 32.7186 72.9325 33.7525 73.9712 34.0745C74.9072 34.3649 75.9916 34.0539 76.5125 33.1511C76.8629 32.5449 77.1044 31.792 77.1265 31.0959C77.1755 29.5459 75.9427 28.3289 74.5015 28.3273C73.0225 28.3241 72.1133 29.3706 72.1133 31.0738Z" fill="#777E90"/>
<path d="M99.0166 6.47034C99.7269 6.47034 100.377 6.47034 101.111 6.47034C101.111 6.92967 101.111 7.36059 101.111 7.94462C101.307 7.78519 101.391 7.73942 101.444 7.66997C102.977 5.7111 106.301 5.75845 108.006 8.05827C109.428 9.97767 109.376 12.9689 107.877 14.8314C106.3 16.7903 103.485 16.8677 101.818 14.9988C101.738 14.9088 101.657 14.8172 101.47 14.601C101.47 16.4983 101.47 18.2425 101.47 20.0435C100.625 20.0435 99.8532 20.0435 99.0166 20.0435C99.0166 15.5575 99.0166 11.0542 99.0166 6.47034ZM101.454 11.1157C101.454 11.3257 101.49 11.5435 101.447 11.744C101.25 12.6658 102.472 13.8891 103.294 14.1259C104.27 14.4068 105.383 14.1069 105.88 13.152C106.235 12.4669 106.478 11.613 106.434 10.8537C106.342 9.30683 105.046 8.28241 103.615 8.39921C102.227 8.51129 101.454 9.48362 101.454 11.1157Z" fill="#777E90"/>
<path d="M57.2679 25.7402C56.6334 26.179 56.032 26.5941 55.3801 27.044C55.2806 26.9177 55.1828 26.8072 55.1007 26.6873C53.6769 24.6179 50.6731 24.5642 49.1814 26.5815C47.9581 28.2373 47.9866 30.7597 49.1957 32.425C50.5752 34.3239 53.7385 34.72 55.4416 31.9909C56.0904 32.3618 56.7423 32.7359 57.3863 33.1053C56.8386 34.9963 54.0794 36.4137 51.445 36.188C48.6337 35.9465 46.064 33.2994 45.7309 30.3019C45.3663 27.0187 47.1973 24.056 50.1617 23.1341C53.0045 22.2518 55.9183 23.2904 57.2679 25.7402Z" fill="#777E90"/>
<path d="M80.5186 16.1526C79.6252 16.1526 78.8944 16.1905 78.1715 16.1289C77.9473 16.11 77.6916 15.8574 77.5448 15.6459C76.7082 14.4431 75.9001 13.2198 75.125 12.0644C73.163 12.8963 73.8228 14.6152 73.6823 16.1005C72.8741 16.1005 72.0991 16.1005 71.272 16.1005C71.272 11.6351 71.272 7.17907 71.272 2.65993C72.0581 2.65993 72.8284 2.65993 73.6807 2.65993C73.6807 5.31017 73.6807 7.94935 73.6807 10.587C73.7376 10.6154 73.796 10.6438 73.8528 10.6722C74.3453 10.1182 74.8378 9.56412 75.3318 9.01008C75.6286 8.67702 75.9869 8.37869 76.2142 8.00302C77.117 6.5098 78.4351 6.14833 80.1398 6.57925C78.9938 7.89253 77.851 9.20423 76.6561 10.5728C77.9047 12.3801 79.1564 14.1859 80.5186 16.1526Z" fill="#777E90"/>
<path d="M69.0606 13.7912C68.1261 15.9664 65.1065 16.9703 62.5842 15.9806C60.0634 14.9924 58.8495 12.1844 59.7903 9.51677C60.6932 6.95335 63.566 5.63691 66.3283 6.51769C68.6565 7.26114 70.1797 9.84825 69.5436 12.0755C67.1254 12.0755 64.6867 12.0755 62.2558 12.0755C62.128 13.4093 63.3339 14.6373 64.7451 14.4968C65.4033 14.4321 66.1231 14.1117 66.6298 13.6855C67.0417 13.3398 67.3148 13.2498 67.7773 13.4203C68.1909 13.5734 68.6281 13.6681 69.0606 13.7912ZM62.1596 10.4181C63.8233 10.4181 65.4333 10.4181 67.0465 10.4181C66.9581 8.9943 65.9479 8.06143 64.5636 8.07405C63.2313 8.08668 62.2369 9.03376 62.1596 10.4181Z" fill="#777E90"/>
<path d="M99.0071 30.4187C99.2439 28.8592 98.5383 27.8916 97.042 27.9926C95.9781 28.0653 94.9379 28.4741 93.7477 28.7661C93.6135 28.4914 93.3768 28.01 93.1447 27.5365C94.7642 26.1474 97.9117 25.7875 99.7253 26.7678C101.02 27.467 101.518 28.6351 101.572 30.0336C101.601 30.796 101.558 31.56 101.591 32.3224C101.618 32.9411 101.522 33.5157 102.03 34.136C102.347 34.5227 102.254 35.6387 101.905 36.0854C101.41 36.7215 99.8437 36.0854 99.5659 35.2646C99.5091 35.0957 99.4759 34.9174 99.4112 34.6648C98.2369 35.9023 96.8857 36.4674 95.2551 36.2259C93.8535 36.0191 92.7785 34.9742 92.6128 33.6751C92.4329 32.2655 93.0832 31.1385 94.4564 30.5261C95.735 29.9563 97.0577 29.9578 98.3979 30.272C98.5999 30.3209 98.8035 30.3698 99.0071 30.4187ZM97.1714 31.4305C96.8541 31.4858 96.4848 31.5126 96.1391 31.6184C95.2757 31.8851 94.8495 32.4928 94.96 33.2331C95.0657 33.9419 95.7097 34.447 96.5589 34.4628C97.4097 34.4785 98.2337 34.2718 98.7199 33.563C98.9961 33.1605 99.0482 32.5481 99.0292 32.0351C99.0229 31.8725 98.472 31.6973 98.15 31.5915C97.858 31.4968 97.536 31.4874 97.1714 31.4305Z" fill="#777E90"/>
<path d="M59.5867 29.0171C59.3215 28.4709 59.0942 28.0037 58.8716 27.5444C60.4974 26.0717 63.9211 25.7654 65.7032 26.9225C66.6234 27.5207 67.1443 28.3857 67.2233 29.4701C67.2927 30.414 67.2517 31.3642 67.299 32.3097C67.3306 32.9269 67.1964 33.5157 67.7568 34.1187C68.0819 34.4691 67.913 35.3941 67.7536 36.0033C67.7094 36.1738 66.9028 36.207 66.4498 36.1912C65.8405 36.1707 65.4333 35.8076 65.2675 35.2046C65.2265 35.0547 65.1839 34.9047 65.1176 34.6727C63.9764 35.896 62.6252 36.4611 60.9978 36.2291C59.5535 36.0223 58.4975 34.9837 58.327 33.6199C58.1534 32.2324 58.8337 31.1085 60.2259 30.504C61.7018 29.8647 63.2013 29.9941 64.6977 30.4203C65.0118 29.0092 64.3094 28.0653 62.9298 27.9595C61.7129 27.8648 60.6726 28.332 59.5867 29.0171ZM62.892 31.4305C62.5763 31.4858 62.2069 31.5126 61.8596 31.62C60.9978 31.8851 60.5558 32.5102 60.6742 33.2316C60.7926 33.9466 61.4319 34.4486 62.2779 34.4628C63.1287 34.4785 63.9543 34.2702 64.442 33.563C64.7182 33.1605 64.7735 32.5465 64.7561 32.0351C64.7514 31.8741 64.1973 31.6973 63.8738 31.5915C63.5786 31.4968 63.2566 31.4874 62.892 31.4305Z" fill="#777E90"/>
<path d="M88.9681 18.1225C90.6965 18.3135 90.9665 18.1588 91.4116 16.5962C91.5016 16.2789 91.4463 15.8685 91.3248 15.5528C90.2735 12.8331 89.1923 10.1261 88.1205 7.41425C88.0068 7.12697 87.9042 6.83496 87.759 6.44192C88.5672 6.44192 89.2744 6.40088 89.972 6.46875C90.1646 6.48769 90.4061 6.79865 90.4882 7.02437C91.2111 9.02586 91.9009 11.0384 92.6033 13.0462C92.6854 13.2782 92.7801 13.5071 92.9443 13.9286C93.3989 12.4732 93.7951 11.2057 94.1897 9.93821C94.4943 8.95957 94.8195 7.98723 95.0878 6.99912C95.2062 6.55873 95.4161 6.40404 95.8597 6.42929C96.4027 6.46086 96.9488 6.43719 97.5976 6.43719C97.3466 7.16012 97.1335 7.77572 96.9204 8.38816C95.8029 11.5861 94.6916 14.7872 93.5614 17.982C92.9332 19.7594 91.3942 20.667 89.6121 20.3703C89.1575 20.2945 88.9129 20.1272 88.9618 19.611C89.0044 19.1217 88.9681 18.6261 88.9681 18.1225Z" fill="#777E90"/>
<path d="M86.6715 28.3304C86.1979 28.302 85.838 28.2799 85.4371 28.2562C85.4371 27.6517 85.4371 27.085 85.4371 26.4379C85.8112 26.4095 86.1885 26.3826 86.6446 26.3479C86.6446 25.3377 86.6446 24.3511 86.6446 23.2999C87.4954 23.2999 88.2673 23.2999 89.1386 23.2999C89.1386 24.2738 89.1386 25.2824 89.1386 26.3621C89.8536 26.3621 90.4724 26.3621 91.1511 26.3621C91.1511 27.0219 91.1511 27.6075 91.1511 28.2673C90.5276 28.2673 89.9073 28.2673 89.1986 28.2673C89.1986 30.0068 89.1623 31.6784 89.2412 33.3452C89.2523 33.5725 89.8221 33.8977 90.1678 33.9529C90.5513 34.0129 90.9744 33.8124 91.4621 33.7083C91.6168 34.3239 91.7715 34.9442 91.9767 35.7634C90.9491 35.9386 90.0115 36.2101 89.0676 36.2322C87.5191 36.2685 86.7015 35.394 86.6762 33.8298C86.6509 32.305 86.6699 30.7802 86.6699 29.2554C86.6715 28.9697 86.6715 28.684 86.6715 28.3304Z" fill="#777E90"/>
<path d="M113.636 3.35603C113.636 4.37098 113.636 5.33858 113.636 6.41351C114.326 6.41351 114.965 6.41351 115.647 6.41351C115.647 7.08909 115.647 7.65734 115.647 8.33765C115.008 8.33765 114.369 8.33765 113.658 8.33765C113.658 10.044 113.633 11.643 113.671 13.2404C113.685 13.867 114.167 14.0833 114.727 14.0296C115.112 13.9933 115.489 13.8591 115.944 13.7518C116.103 14.3642 116.258 14.9656 116.425 15.6112C115.303 16.1984 114.148 16.4794 112.917 16.241C111.772 16.02 111.187 15.2134 111.166 13.8654C111.142 12.3391 111.16 10.8127 111.158 9.28631C111.158 9.00376 111.158 8.72122 111.158 8.40553C110.71 8.37396 110.352 8.3487 109.936 8.32029C109.936 7.70943 109.936 7.12224 109.936 6.48612C110.315 6.45929 110.674 6.43403 111.127 6.40088C111.127 5.3954 111.127 4.41045 111.127 3.35919C111.992 3.35603 112.762 3.35603 113.636 3.35603Z" fill="#777E90"/>
<path d="M103.87 22.6148C104.729 22.6148 105.503 22.6148 106.356 22.6148C106.356 23.1783 106.356 23.6992 106.356 24.2185C106.356 26.8767 106.356 29.5332 106.356 32.1914C106.356 34.076 106.511 34.2197 108.371 33.9719C108.472 34.5512 108.574 35.1352 108.68 35.7397C107.638 36.218 106.606 36.3506 105.551 36.1659C104.57 35.9954 103.894 35.233 103.883 34.1455C103.847 30.3351 103.87 26.5231 103.87 22.6148Z" fill="#777E90"/>
<path d="M6.6151 15.3571C7.82578 10.3723 12.4128 6.51927 16.2311 5.74424C16.2311 6.51453 16.2563 7.27219 16.2121 8.02512C16.2027 8.19244 15.9817 8.42131 15.8049 8.4955C12.7932 9.75511 10.6765 11.8955 9.39161 14.893C9.30006 15.1045 8.95912 15.316 8.71761 15.3366C8.04045 15.3965 7.3554 15.3571 6.6151 15.3571Z" fill="#777E90"/>
<path d="M81.6236 6.48454C82.3449 6.48454 83.0394 6.48454 83.8192 6.48454C83.8192 7.07646 83.8192 7.63682 83.8192 8.39448C84.7978 7.15696 85.7212 6.1799 87.3234 6.3409C87.3234 7.10487 87.3234 7.80413 87.3234 8.4513C86.5989 8.66597 85.8949 8.79856 85.2556 9.08111C84.4632 9.42995 84.007 10.025 84.0449 10.9974C84.108 12.6753 84.0623 14.3563 84.0623 16.0942C83.2257 16.0942 82.4538 16.0942 81.6236 16.0942C81.6236 12.912 81.6236 9.72038 81.6236 6.48454Z" fill="#777E90"/>
<path d="M83.8176 36.0523C83.0331 36.0523 82.2802 36.0523 81.4594 36.0523C81.4594 32.8717 81.4594 29.6879 81.4594 26.4458C82.2171 26.4458 82.9889 26.4458 83.8176 26.4458C83.8176 29.6342 83.8176 32.8212 83.8176 36.0523Z" fill="#777E90"/>
<path d="M83.8287 24.9841C82.9984 24.9841 82.2486 24.9841 81.4452 24.9841C81.4452 24.187 81.4452 23.4214 81.4452 22.6148C82.2502 22.6148 83.0189 22.6148 83.8287 22.6148C83.8287 23.4088 83.8287 24.157 83.8287 24.9841Z" fill="#777E90"/>
</svg>
