<svg width="136" height="30" viewBox="0 0 136 30" fill="none" xmlns="http://www.w3.org/2000/svg">
<path d="M18.7374 1.00017C10.4124 4.20901 9.64981 12.4269 7.2627 16.2648C4.84732 20.1484 -0.686231 22.291 0.0704715 24.2702C0.827143 26.2491 6.36728 24.1236 10.7503 25.3863C15.0814 26.6341 21.1246 32.2293 29.4495 29.0203C33.6905 27.3859 36.7614 24.0214 38.1735 20.0361C38.3253 19.6084 38.0415 19.1509 37.5909 19.1086C37.311 19.0822 37.0422 19.2295 36.9159 19.4816C35.6386 22.0362 33.4472 24.14 30.5797 25.2452C25.8454 27.0698 20.6655 25.6372 17.4844 22.0441C16.7618 21.2283 16.1439 20.2995 15.6561 19.273C15.5219 18.9905 15.3944 18.7033 15.2813 18.4063C15.1676 18.1092 15.0709 17.8102 14.9822 17.5098C17.4844 16.3388 20.3717 15.0984 23.6452 13.8369C26.8545 12.5998 29.7757 11.5965 32.3762 10.7937C34.1356 10.2511 35.7483 9.7996 37.2043 9.43059C37.3098 9.40419 37.4135 9.37779 37.5168 9.35203C37.7369 9.29725 37.9632 9.41541 38.0445 9.62796L38.0461 9.63193C38.0939 9.75802 38.1354 9.88475 38.1802 10.0115C38.468 10.8294 38.6838 11.6559 38.8262 12.4843C38.8887 12.8467 39.2832 13.0441 39.6067 12.8698C40.802 12.2256 41.8953 11.5971 42.8721 10.9924C46.5124 8.74142 48.5306 6.83236 48.1163 5.7504C47.7029 4.6678 44.9311 4.60576 40.7255 5.3781C39.389 5.62367 37.9074 5.95371 36.3105 6.36235C36.0343 6.43296 35.7547 6.50625 35.4721 6.58149C34.1283 6.93928 32.711 7.34923 31.2351 7.80802C28.4904 8.66154 25.5457 9.68409 22.5056 10.8558C19.6617 11.9523 16.9663 13.089 14.4944 14.2218C14.4641 9.4141 17.3588 4.86913 22.0929 3.04455C24.9598 1.93951 27.9907 2.02997 30.6428 3.07095C30.9043 3.17394 31.2022 3.10266 31.3936 2.89471C31.6997 2.56134 31.6058 2.03061 31.208 1.81409C27.503 -0.197309 22.9785 -0.6343 18.7374 1.00017Z" fill="#777E90"/>
<path d="M67.2993 21.1807H58.9567V16.0904H66.8502C67.1026 16.0904 67.2712 15.9198 67.2712 15.6638V13.076C67.2712 12.8201 67.1026 12.6495 66.8502 12.6495H58.9567V8.15633H67.2712C67.5237 8.15633 67.6922 7.98569 67.6922 7.72976V5.14192C67.6922 4.88599 67.5237 4.71536 67.2712 4.71536H55.5324C55.28 4.71536 55.1114 4.88599 55.1114 5.14192V24.1952C55.1114 24.451 55.28 24.6217 55.5324 24.6217H67.2993C67.552 24.6217 67.7203 24.451 67.7203 24.1952V21.6072C67.7203 21.3514 67.552 21.1807 67.2993 21.1807Z" fill="#777E90"/>
<path d="M79.6432 11.0285L76.3034 20.2423L72.9353 11.0285C72.8512 10.801 72.6545 10.6873 72.4301 10.6873H69.5391C69.2303 10.6873 69.09 10.8579 69.2022 11.1707L74.3666 24.2806C74.4508 24.508 74.6474 24.6217 74.8718 24.6217H77.7348C77.9594 24.6217 78.1558 24.508 78.2399 24.2806L83.3763 11.1707C83.4885 10.8579 83.3482 10.6873 83.0394 10.6873H80.1487C79.924 10.6873 79.7277 10.801 79.6432 11.0285Z" fill="#777E90"/>
<path d="M102.429 10.3745C100.183 10.3745 98.5554 11.4551 97.5729 12.9623C96.7028 11.2844 95.1593 10.3745 93.3346 10.3745C91.3421 10.3745 89.8824 11.4835 88.9842 12.9623V12.9338L88.8721 11.1138C88.844 10.8579 88.7038 10.6873 88.451 10.6873H85.7006C85.4478 10.6873 85.2795 10.8579 85.2795 11.1138V24.1952C85.2795 24.451 85.4478 24.6217 85.7006 24.6217H88.5632C88.816 24.6217 88.9842 24.451 88.9842 24.1952V16.5739C88.9842 15.9198 89.9388 13.8438 92.0155 13.8438C93.3627 13.8438 94.5977 14.6401 94.5977 16.9435V24.1952C94.5977 24.451 94.7663 24.6217 95.0187 24.6217H97.8817C98.1344 24.6217 98.3027 24.451 98.3027 24.1952V16.517C98.3027 15.5217 99.2569 13.8438 101.334 13.8438C102.653 13.8438 103.888 14.6401 103.888 16.9435V24.1952C103.888 24.451 104.056 24.6217 104.309 24.6217H107.172C107.425 24.6217 107.593 24.451 107.593 24.1952V16.261C107.593 12.5357 105.432 10.3745 102.429 10.3745Z" fill="#777E90"/>
<path d="M116.351 24.9915C120.308 24.9915 123.48 21.7779 123.48 17.6829C123.48 13.5879 120.308 10.3745 116.351 10.3745C112.393 10.3745 109.222 13.5879 109.222 17.6829C109.222 21.7779 112.393 24.9915 116.351 24.9915ZM116.351 21.5219C114.358 21.5219 112.786 19.9295 112.786 17.6829C112.786 15.4363 114.358 13.8438 116.351 13.8438C118.315 13.8438 119.915 15.4363 119.915 17.6829C119.915 19.9295 118.315 21.5219 116.351 21.5219Z" fill="#777E90"/>
<path d="M128.662 14.5832C128.662 13.8723 129.307 13.3889 130.177 13.3889C131.16 13.3889 131.805 13.7585 132.872 14.4695C133.124 14.6685 133.321 14.7254 133.489 14.4979L134.556 13.076C134.696 12.9054 134.752 12.6779 134.584 12.4788C133.433 11.1138 131.637 10.3745 129.869 10.3745C127.399 10.3745 125.097 11.9385 125.097 14.6117C125.097 19.3039 131.749 18.4508 131.749 20.6689C131.749 21.5505 130.879 21.835 129.981 21.835C128.886 21.835 127.679 21.2944 126.557 20.5551C126.304 20.3561 126.108 20.2992 125.939 20.5267L124.844 22.0907C124.732 22.2615 124.676 22.4605 124.844 22.6596C125.827 23.8254 127.735 24.9915 130.093 24.9915C132.619 24.9915 135.342 23.4273 135.342 20.7257C135.342 15.607 128.662 16.8582 128.662 14.5832Z" fill="#777E90"/>
</svg>
