<svg width="64" height="40" viewBox="0 0 64 40" fill="none" xmlns="http://www.w3.org/2000/svg">
<path d="M0.294864 13V1.21386H7.60365V2.74468H2.07314V6.33577H7.07995V7.86083H2.07314V13H0.294864ZM9.65241 13V4.1604H11.3731V13H9.65241ZM10.5214 2.79648C10.2222 2.79648 9.9651 2.69672 9.75024 2.49722C9.53923 2.29388 9.43372 2.05217 9.43372 1.77209C9.43372 1.48818 9.53923 1.24648 9.75024 1.04697C9.9651 0.843629 10.2222 0.741958 10.5214 0.741958C10.8207 0.741958 11.0758 0.843629 11.2868 1.04697C11.5017 1.24648 11.6091 1.48818 11.6091 1.77209C11.6091 2.05217 11.5017 2.29388 11.2868 2.49722C11.0758 2.69672 10.8207 2.79648 10.5214 2.79648ZM16.2605 13.1957C15.7004 13.1957 15.1939 13.0921 14.7412 12.8849C14.2885 12.6739 13.9298 12.3689 13.665 11.9699C13.4042 11.5709 13.2737 11.0817 13.2737 10.5024C13.2737 10.0036 13.3696 9.59307 13.5615 9.27079C13.7533 8.94852 14.0123 8.69338 14.3384 8.50538C14.6645 8.31739 15.029 8.17543 15.4318 8.07952C15.8347 7.9836 16.2452 7.91071 16.6634 7.86083C17.1928 7.79944 17.6225 7.74957 17.9525 7.7112C18.2824 7.669 18.5222 7.60186 18.6719 7.50978C18.8215 7.4177 18.8963 7.26807 18.8963 7.06089V7.02061C18.8963 6.51801 18.7543 6.12859 18.4704 5.85235C18.1904 5.57612 17.7722 5.438 17.2159 5.438C16.6365 5.438 16.18 5.56652 15.8462 5.82358C15.5162 6.0768 15.2879 6.35879 15.1613 6.66956L13.5442 6.30124C13.736 5.76411 14.0161 5.33057 14.3844 5.00062C14.7566 4.66683 15.1844 4.42513 15.6678 4.2755C16.1512 4.12203 16.6595 4.0453 17.1928 4.0453C17.5458 4.0453 17.9199 4.0875 18.315 4.17191C18.7141 4.25248 19.0862 4.40211 19.4315 4.62079C19.7806 4.83948 20.0665 5.15217 20.289 5.55885C20.5115 5.9617 20.6228 6.4854 20.6228 7.12995V13H18.9423V11.7915H18.8733C18.762 12.014 18.5951 12.2327 18.3726 12.4475C18.1501 12.6624 17.8642 12.8408 17.5151 12.9827C17.166 13.1247 16.7478 13.1957 16.2605 13.1957ZM16.6346 11.8145C17.1103 11.8145 17.517 11.7205 17.8547 11.5325C18.1961 11.3445 18.4551 11.0989 18.6316 10.7959C18.8119 10.4889 18.9021 10.1609 18.9021 9.81176V8.67228C18.8407 8.73366 18.7217 8.79121 18.5452 8.84493C18.3726 8.8948 18.175 8.93892 17.9525 8.97729C17.73 9.01182 17.5132 9.04443 17.3022 9.07512C17.0912 9.10198 16.9147 9.125 16.7727 9.14418C16.4389 9.18639 16.1339 9.25736 15.8577 9.35712C15.5853 9.45687 15.3666 9.60074 15.2016 9.78874C15.0405 9.9729 14.9599 10.2184 14.9599 10.5254C14.9599 10.9512 15.1172 11.2735 15.4318 11.4922C15.7464 11.7071 16.1473 11.8145 16.6346 11.8145ZM27.041 4.1604V5.54159H22.2126V4.1604H27.041ZM23.5075 2.04258H25.2282V10.4045C25.2282 10.7383 25.2781 10.9896 25.3778 11.1584C25.4776 11.3234 25.6061 11.4366 25.7634 11.498C25.9245 11.5555 26.0991 11.5843 26.2871 11.5843C26.4252 11.5843 26.5461 11.5747 26.6497 11.5555C26.7532 11.5363 26.8338 11.521 26.8914 11.5095L27.2021 12.9309C27.1024 12.9693 26.9604 13.0077 26.7763 13.046C26.5921 13.0882 26.3619 13.1113 26.0857 13.1151C25.6329 13.1228 25.2109 13.0422 24.8196 12.8734C24.4282 12.7046 24.1117 12.4437 23.87 12.0907C23.6283 11.7377 23.5075 11.2946 23.5075 10.7613V2.04258ZM33.3714 13V1.21386H35.1497V11.4692H40.4903V13H33.3714ZM47.9804 9.3341V4.1604H49.7069V13H48.0149V11.4692H47.9228C47.7195 11.9411 47.3934 12.3343 46.9445 12.6489C46.4994 12.9597 45.945 13.1151 45.2813 13.1151C44.7135 13.1151 44.2109 12.9904 43.7735 12.741C43.34 12.4878 42.9985 12.1137 42.7491 11.6188C42.5036 11.1239 42.3808 10.5119 42.3808 9.78298V4.1604H44.1015V9.57581C44.1015 10.1782 44.2684 10.6577 44.6022 11.0145C44.936 11.3713 45.3695 11.5498 45.9028 11.5498C46.2251 11.5498 46.5455 11.4692 46.8639 11.308C47.1862 11.1469 47.4528 10.9033 47.6638 10.5772C47.8787 10.2511 47.9842 9.8367 47.9804 9.3341ZM53.3771 4.1604L55.328 7.60186L57.2962 4.1604H59.1781L56.4214 8.5802L59.2011 13H57.3192L55.328 9.69666L53.3425 13H51.4549L54.2058 8.5802L51.4894 4.1604H53.3771ZM9.08047 39H0.446328V16.56H8.99281C11.3011 16.56 13.2953 17.0092 14.9754 17.9077C16.6627 18.7989 17.963 20.0845 18.8761 21.7646C19.7964 23.4374 20.2566 25.4425 20.2566 27.78C20.2566 30.1175 19.8001 32.1263 18.887 33.8064C17.9739 35.4791 16.681 36.7648 15.0082 37.6632C13.3355 38.5544 11.3595 39 9.08047 39ZM6.53844 33.8283H8.86133C9.97164 33.8283 10.9176 33.6493 11.6992 33.2914C12.4881 32.9335 13.0871 32.3162 13.4962 31.4396C13.9125 30.5631 14.1207 29.3432 14.1207 27.78C14.1207 26.2168 13.9089 24.9969 13.4852 24.1204C13.0688 23.2438 12.4552 22.6265 11.6444 22.2686C10.8409 21.9107 9.85477 21.7317 8.68602 21.7317H6.53844V33.8283ZM25.7913 39H19.217L26.624 16.56H34.9513L42.3583 39H35.7841L30.8753 22.7398H30.7L25.7913 39ZM24.5641 30.1467H36.9236V34.7048H24.5641V30.1467ZM63.5067 27.78C63.5067 30.2782 63.0209 32.3856 62.0494 34.1022C61.0779 35.8115 59.7667 37.1081 58.1158 37.992C56.465 38.8685 54.6242 39.3068 52.5935 39.3068C50.5482 39.3068 48.7001 38.8649 47.0492 37.981C45.4057 37.0898 44.0981 35.7896 43.1266 34.0803C42.1624 32.3637 41.6803 30.2636 41.6803 27.78C41.6803 25.2818 42.1624 23.178 43.1266 21.4687C44.0981 19.7521 45.4057 18.4556 47.0492 17.579C48.7001 16.6951 50.5482 16.2532 52.5935 16.2532C54.6242 16.2532 56.465 16.6951 58.1158 17.579C59.7667 18.4556 61.0779 19.7521 62.0494 21.4687C63.0209 23.178 63.5067 25.2818 63.5067 27.78ZM57.2393 27.78C57.2393 26.4359 57.0603 25.3037 56.7024 24.3833C56.3517 23.4556 55.8295 22.7544 55.1355 22.2796C54.4489 21.7975 53.6015 21.5564 52.5935 21.5564C51.5854 21.5564 50.7344 21.7975 50.0405 22.2796C49.3538 22.7544 48.8316 23.4556 48.4736 24.3833C48.123 25.3037 47.9477 26.4359 47.9477 27.78C47.9477 29.1241 48.123 30.2599 48.4736 31.1876C48.8316 32.108 49.3538 32.8093 50.0405 33.2914C50.7344 33.7662 51.5854 34.0036 52.5935 34.0036C53.6015 34.0036 54.4489 33.7662 55.1355 33.2914C55.8295 32.8093 56.3517 32.108 56.7024 31.1876C57.0603 30.2599 57.2393 29.1241 57.2393 27.78Z" fill="#777E90"/>
</svg>
