<svg width="40" height="40" viewBox="0 0 40 40" fill="none" xmlns="http://www.w3.org/2000/svg">
<path d="M6.66675 1.66667C6.66675 0.746193 7.41294 0 8.33341 0C9.25389 0 10.0001 0.746192 10.0001 1.66667V38.3333C10.0001 39.2538 9.25389 40 8.33341 40C7.41294 40 6.66675 39.2538 6.66675 38.3333V1.66667Z" fill="#FECB33"/>
<path d="M23.3333 8.33335C23.3333 7.41288 24.0794 6.66669 24.9999 6.66669H32.3032C33.5422 6.66669 34.348 7.97054 33.7939 9.07871L30.3726 15.9213C30.138 16.3905 30.138 16.9428 30.3726 17.412L33.7939 24.2547C34.348 25.3628 33.5422 26.6667 32.3032 26.6667H26.6666C24.8256 26.6667 23.3333 25.1743 23.3333 23.3334V8.33335Z" fill="#FECB33"/>
<path d="M13.3333 4.99998C13.3333 4.0795 14.0794 3.33331 14.9999 3.33331H16.6666C18.5075 3.33331 19.9999 4.8257 19.9999 6.66665V21.6666C19.9999 22.5871 19.2537 23.3333 18.3333 23.3333H14.9999C14.0794 23.3333 13.3333 22.5871 13.3333 21.6666V4.99998Z" fill="#FECB33"/>
</svg>
