<svg width="40" height="40" viewBox="0 0 40 40" fill="none" xmlns="http://www.w3.org/2000/svg">
<path fill-rule="evenodd" clip-rule="evenodd" d="M19.9999 33.3333C27.3637 33.3333 33.3333 27.3638 33.3333 20C33.3333 12.6362 27.3637 6.66665 19.9999 6.66665C12.6361 6.66665 6.66659 12.6362 6.66659 20C6.66659 27.3638 12.6361 33.3333 19.9999 33.3333ZM19.9999 36.6666C29.2047 36.6666 36.6666 29.2047 36.6666 20C36.6666 10.7952 29.2047 3.33331 19.9999 3.33331C10.7952 3.33331 3.33325 10.7952 3.33325 20C3.33325 29.2047 10.7952 36.6666 19.9999 36.6666Z" fill="#FECB33"/>
<path fill-rule="evenodd" clip-rule="evenodd" d="M22.9112 30.2944C24.1424 27.832 25.0001 24.1971 25.0001 20C25.0001 15.8029 24.1424 12.1679 22.9112 9.70558C21.5804 7.04385 20.3585 6.66665 20.0001 6.66665C19.6417 6.66665 18.4198 7.04385 17.0889 9.70558C15.8578 12.1679 15.0001 15.8029 15.0001 20C15.0001 24.1971 15.8578 27.832 17.0889 30.2944C18.4198 32.9561 19.6417 33.3333 20.0001 33.3333C20.3585 33.3333 21.5804 32.9561 22.9112 30.2944ZM20.0001 36.6666C24.6025 36.6666 28.3334 29.2047 28.3334 20C28.3334 10.7952 24.6025 3.33331 20.0001 3.33331C15.3977 3.33331 11.6667 10.7952 11.6667 20C11.6667 29.2047 15.3977 36.6666 20.0001 36.6666Z" fill="#FECB33"/>
<path fill-rule="evenodd" clip-rule="evenodd" d="M36.5843 21.6666C36.6387 21.1185 36.6666 20.5625 36.6666 20C36.6666 19.4375 36.6387 18.8815 36.5843 18.3333H3.41554C3.36112 18.8815 3.33325 19.4375 3.33325 20C3.33325 20.5625 3.36112 21.1185 3.41554 21.6666H36.5843Z" fill="#FECB33"/>
</svg>
