<svg width="40" height="40" viewBox="0 0 40 40" fill="none" xmlns="http://www.w3.org/2000/svg">
<path fill-rule="evenodd" clip-rule="evenodd" d="M19.9999 36.6666C29.2047 36.6666 36.6666 29.2047 36.6666 20C36.6666 10.7952 29.2047 3.33331 19.9999 3.33331C10.7952 3.33331 3.33325 10.7952 3.33325 20C3.33325 29.2047 10.7952 36.6666 19.9999 36.6666ZM18.3333 13.3333C18.3333 12.4128 19.0794 11.6666 19.9999 11.6666C20.9204 11.6666 21.6666 12.4128 21.6666 13.3333C21.6666 14.2538 20.9204 15 19.9999 15C19.0794 15 18.3333 14.2538 18.3333 13.3333ZM18.3333 20C18.3333 19.0795 19.0794 18.3333 19.9999 18.3333C20.9204 18.3333 21.6666 19.0795 21.6666 20V26.6666C21.6666 27.5871 20.9204 28.3333 19.9999 28.3333C19.0794 28.3333 18.3333 27.5871 18.3333 26.6666V20Z" fill="#FECB33"/>
</svg>
