<svg width="93" height="30" viewBox="0 0 93 30" fill="none" xmlns="http://www.w3.org/2000/svg">
<path d="M30.4901 20.0346C30.4901 23.3308 30.4901 26.2998 30.4901 29.4439C29.1479 29.6364 27.9586 29.8075 26.6178 30C26.6178 20.2164 26.6178 10.5715 26.6178 0.712505C27.6905 0.510531 28.7819 0.305864 30.0449 0.0675354C30.1254 1.20397 30.1884 2.10612 30.2581 3.08367C37.3337 -1.18605 42.4905 -0.813068 46.4902 4.15278C50.0232 8.53964 49.8784 15.2102 46.1616 19.3277C42.3242 23.5772 36.3522 23.9556 30.4901 20.0346ZM45.0286 11.615C45.0715 7.20661 41.8509 3.76365 37.6474 3.72325C33.393 3.68151 29.9967 7.05581 29.9698 11.3484C29.9444 15.536 33.2482 19.0301 37.2988 19.0975C41.7061 19.1702 44.9857 15.9951 45.0286 11.615Z" fill="#777E90"/>
<path d="M0.171453 11.4656C0.15 5.03742 5.30678 -0.037493 11.8205 0.000208705C18.2565 0.0365639 23.4307 5.03743 23.4897 11.2744C23.55 17.7281 18.294 22.8932 11.6878 22.8744C5.32555 22.8569 0.191566 17.7698 0.171453 11.4656ZM4.1671 11.3134C4.12956 15.567 7.48428 19.0288 11.7065 19.0948C15.8792 19.1594 19.4042 15.7339 19.494 11.5288C19.5825 7.39647 16.0897 3.8027 11.9197 3.73268C7.74976 3.66266 4.20331 7.12988 4.1671 11.3134Z" fill="#777E90"/>
<path d="M77.4659 22.15C76.1278 22.3614 74.9398 22.5499 73.6003 22.7626C73.6003 15.3017 73.6003 8.07241 73.6003 0.68692C74.8178 0.482254 76.0017 0.282976 77.3372 0.0594594C77.4176 0.993923 77.478 1.70217 77.5759 2.8238C79.8459 0.382615 82.5369 -0.251584 85.535 0.105235C89.9865 0.634405 92.3518 3.2089 92.3746 7.68867C92.3987 12.4458 92.3799 17.2016 92.3799 22.1446C91.0646 22.3587 89.8766 22.5526 88.4124 22.7922C88.4124 18.1805 88.4124 13.7977 88.4124 9.41487C88.4111 5.16401 87.2901 3.69633 83.9488 3.5711C80.2656 3.43242 77.7327 5.54775 77.5316 9.27079C77.3466 12.707 77.474 16.1594 77.4659 19.6051C77.4646 20.3995 77.4659 21.1953 77.4659 22.15Z" fill="#777E90"/>
<path d="M56.2983 29.1679C55.0071 28.7909 53.976 28.4892 52.7598 28.1338C54.3956 24.9008 56.0154 21.8793 57.4326 18.7649C57.7853 17.9907 57.7906 16.768 57.4273 16.0032C55.0151 10.9229 52.4595 5.9113 49.9441 0.861965C53.2063 -0.274472 53.205 -0.274474 54.6772 2.61913C56.4283 6.05806 58.1795 9.49565 60.1035 13.2725C61.9096 9.4741 63.5454 6.05403 65.1652 2.62452C66.502 -0.207145 66.4926 -0.21253 69.8326 0.810801C65.3328 10.2349 60.8544 19.6186 56.2983 29.1679Z" fill="#777E90"/>
</svg>
