<svg width="83" height="31" viewBox="0 0 83 31" fill="none" xmlns="http://www.w3.org/2000/svg">
<path fill-rule="evenodd" clip-rule="evenodd" d="M24.6375 8.72204L13.5448 2.31768C13.3834 2.22448 13.1845 2.22448 13.0231 2.31768L1.93042 8.72204C1.76899 8.81524 1.66955 8.98748 1.66955 9.17387V21.9826C1.66955 22.169 1.76899 22.3412 1.93042 22.4344L13.0231 28.8388C13.1845 28.932 13.3834 28.932 13.5448 28.8388L24.6375 22.4344C24.7989 22.3412 24.8984 22.169 24.8984 21.9826V9.17387C24.8984 8.98748 24.7989 8.81524 24.6375 8.72204ZM14.3796 0.871808C13.7016 0.480373 12.8663 0.480373 12.1883 0.871808L1.09564 7.27617C0.417657 7.6676 0 8.391 0 9.17387V21.9826C0 22.7655 0.417657 23.4889 1.09564 23.8803L12.1883 30.2847C12.8663 30.6761 13.7016 30.6761 14.3796 30.2847L25.4723 23.8803C26.1503 23.4889 26.5679 22.7655 26.5679 21.9826V9.17387C26.5679 8.391 26.1503 7.6676 25.4723 7.27617L14.3796 0.871808Z" fill="#777E90"/>
<path d="M1.17972 15.0565H24.9708V16.3087H1.17972V15.0565Z" fill="#777E90"/>
<path d="M12.9537 15.5031L13.322 16.1411L1.21632 23.1303L0.847978 22.4923L12.9537 15.5031Z" fill="#777E90"/>
<path d="M12.9219 15.4739L12.5535 16.1119L24.6593 23.1011L25.0276 22.4631L12.9219 15.4739Z" fill="#777E90"/>
<path d="M7.23184 8.90003H6.50141V10.2046C6.30018 11.7018 5.54252 12.9319 4.67824 13.8284C4.17335 14.3521 3.63727 14.7561 3.16659 15.0274C2.68218 15.3066 2.30784 15.4217 2.11884 15.4217V16.0478C2.47766 16.0478 2.97071 15.8629 3.47922 15.5698C4.00147 15.2688 4.58386 14.8283 5.12895 14.2629C5.6446 13.7281 6.13153 13.0762 6.50141 12.3196V19.6478H7.23184V12.2106C7.60745 13.0137 8.11621 13.7025 8.65647 14.2629C9.20156 14.8283 9.78396 15.2688 10.3062 15.5698C10.8147 15.8629 11.3078 16.0478 11.6666 16.0478V15.4217C11.4776 15.4217 11.1032 15.3066 10.6188 15.0274C10.1481 14.7561 9.61207 14.3521 9.10718 13.8284C8.09662 12.7802 7.23184 11.2759 7.23184 9.42177V8.90003Z" fill="#777E90"/>
<path d="M19.9622 8.79568H19.2317V10.1002C19.0305 11.5974 18.2728 12.8275 17.4086 13.724C16.9037 14.2477 16.3676 14.6518 15.8969 14.923C15.4125 15.2022 15.0382 15.3174 14.8492 15.3174V15.9434C15.208 15.9434 15.701 15.7586 16.2095 15.4655C16.7318 15.1645 17.3142 14.724 17.8593 14.1586C18.3749 13.6237 18.8619 12.9719 19.2317 12.2153V19.5434H19.9622V12.1062C20.3378 12.9094 20.8465 13.5982 21.3868 14.1586C21.9319 14.724 22.5143 15.1645 23.0365 15.4655C23.545 15.7586 24.0381 15.9434 24.3969 15.9434V15.3174C24.2079 15.3174 23.8336 15.2022 23.3492 14.923C22.8785 14.6518 22.3424 14.2477 21.8375 13.724C20.8269 12.6758 19.9622 11.1715 19.9622 9.31742V8.79568Z" fill="#777E90"/>
<path d="M38.267 23.0089C37.3383 23.0089 36.5201 22.9167 35.8125 22.7325C35.1123 22.5408 34.5742 22.3086 34.1983 22.0359C33.8297 21.7632 33.6455 21.5052 33.6455 21.262C33.6455 21.0703 33.7155 20.8345 33.8555 20.5544C34.003 20.2743 34.1762 20.0347 34.3752 19.8357C34.5742 19.6293 34.74 19.5261 34.8727 19.5261C34.9538 19.5261 35.127 19.5962 35.3924 19.7362C35.7904 19.9426 36.1663 20.1084 36.5201 20.2337C36.8813 20.3591 37.294 20.4217 37.7584 20.4217C38.2744 20.4217 38.7092 20.3222 39.063 20.1232C39.4242 19.9168 39.6048 19.5593 39.6048 19.0507C39.6048 18.7559 39.5127 18.5016 39.3284 18.2878C39.1441 18.0741 38.9083 17.8935 38.6208 17.7461C38.3333 17.5987 37.9427 17.4255 37.4488 17.2264L36.5754 16.8505C36.0447 16.5925 35.5877 16.3088 35.2044 15.9992C34.8285 15.6896 34.5189 15.2805 34.2757 14.7719C34.0398 14.2634 33.9219 13.6405 33.9219 12.9034C33.9219 12.0042 34.143 11.256 34.5853 10.659C35.0275 10.062 35.6024 9.6234 36.31 9.34331C37.0176 9.06321 37.7768 8.92317 38.5876 8.92317C39.251 8.92317 39.8517 8.99319 40.3898 9.13324C40.9279 9.26591 41.348 9.43913 41.6502 9.65288C41.9598 9.86664 42.1146 10.0804 42.1146 10.2941C42.1146 10.471 42.0556 10.6995 41.9377 10.9796C41.8271 11.2524 41.6871 11.4919 41.5175 11.6983C41.348 11.9047 41.1895 12.0079 41.0421 12.0079C40.9758 12.0079 40.8578 11.971 40.6883 11.8973C40.4156 11.7867 40.1392 11.6983 39.8591 11.632C39.5864 11.5582 39.251 11.5214 38.853 11.5214C38.1675 11.5214 37.6921 11.632 37.4267 11.8531C37.1614 12.0668 37.0287 12.3211 37.0287 12.616C37.0287 12.955 37.1171 13.2388 37.294 13.4673C37.4783 13.6958 37.7068 13.8838 37.9795 14.0312C38.2596 14.1786 38.6466 14.3481 39.1404 14.5398C39.8849 14.8567 40.493 15.1589 40.9647 15.4464C41.4365 15.7265 41.8419 16.1319 42.1809 16.6626C42.5274 17.1933 42.7006 17.8714 42.7006 18.6969C42.7006 19.7067 42.4868 20.536 42.0593 21.1846C41.6392 21.8259 41.0937 22.2902 40.423 22.5777C39.7596 22.8651 39.0409 23.0089 38.267 23.0089Z" fill="#777E90"/>
<path d="M45.5973 22.8762C44.8086 22.8762 44.4143 22.6698 44.4143 22.257V9.86295C44.4143 9.59023 44.4769 9.3949 44.6022 9.27697C44.7276 9.15166 44.9266 9.08901 45.1993 9.08901H51.7667C51.9731 9.08901 52.1205 9.16641 52.209 9.32119C52.3048 9.47598 52.3527 9.72659 52.3527 10.073V10.6701C52.3527 11.0165 52.3048 11.2671 52.209 11.4219C52.1205 11.5767 51.9731 11.6541 51.7667 11.6541H47.4437V14.5287H51.623C51.8294 14.5287 51.9805 14.6061 52.0763 14.7609C52.1721 14.9157 52.22 15.1626 52.22 15.5017V16.1098C52.22 16.4562 52.1721 16.7105 52.0763 16.8726C51.9805 17.0274 51.8294 17.1048 51.623 17.1048H47.4437V22.257C47.4437 22.6698 47.0494 22.8762 46.2607 22.8762H45.5973Z" fill="#777E90"/>
<path d="M55.0836 22.843C54.8109 22.843 54.6119 22.7804 54.4866 22.6551C54.3613 22.5298 54.2986 22.3308 54.2986 22.058V9.86295C54.2986 9.59023 54.3613 9.3949 54.4866 9.27697C54.6119 9.15166 54.8109 9.08901 55.0836 9.08901H58.9754C60.5675 9.08901 61.7395 9.39859 62.4913 10.0177C63.2431 10.6295 63.6191 11.4772 63.6191 12.5607C63.6191 13.2093 63.4164 13.8064 63.011 14.3518C62.6056 14.8972 62.097 15.2953 61.4852 15.5459L61.5073 15.6233C62.0233 15.7265 62.4803 15.9365 62.8783 16.2535C63.2837 16.5704 63.5969 16.9574 63.8181 17.4144C64.0466 17.8714 64.1608 18.3505 64.1608 18.8517C64.1608 20.1416 63.7517 21.1293 62.9336 21.8148C62.1154 22.5003 60.8882 22.843 59.2518 22.843H55.0836ZM58.6769 14.5619C59.2518 14.5619 59.6978 14.4255 60.0147 14.1528C60.339 13.8727 60.5012 13.5189 60.5012 13.0914C60.5012 12.1184 59.9041 11.632 58.7101 11.632H57.328V14.5619H58.6769ZM59.2518 20.2669C59.8194 20.2669 60.2616 20.1306 60.5786 19.8578C60.8955 19.5777 61.054 19.1834 61.054 18.6748C61.054 18.1736 60.8697 17.794 60.5012 17.536C60.14 17.278 59.6167 17.149 58.9312 17.149H57.328V20.2669H59.2518Z" fill="#777E90"/>
<path d="M68.7381 22.8762C68.4212 22.8762 68.1706 22.843 67.9863 22.7767C67.802 22.703 67.6951 22.5998 67.6657 22.4671L64.5588 9.8519C64.5294 9.77082 64.5146 9.67131 64.5146 9.55338C64.5146 9.39122 64.6141 9.26591 64.8131 9.17746C65.0195 9.08164 65.3291 9.03373 65.7419 9.03373H66.2505C67.017 9.03373 67.4556 9.24011 67.5661 9.65288L69.0366 15.9771C69.0587 16.0876 69.1472 16.5041 69.302 17.2264L69.6447 18.8075C69.7332 18.2694 69.9027 17.5213 70.1533 16.5631L70.3081 15.9771L71.9334 9.45387C71.9629 9.30645 72.0661 9.19958 72.243 9.13324C72.4272 9.0669 72.6815 9.03373 73.0058 9.03373H73.7577C74.082 9.03373 74.3326 9.0669 74.5095 9.13324C74.6938 9.19958 74.8006 9.30645 74.8301 9.45387L76.3891 15.9771C76.5807 16.7879 76.8055 17.7756 77.0635 18.9402C77.093 18.8075 77.1962 18.3431 77.3731 17.5471L77.7269 15.9771L79.2526 9.65288C79.3632 9.24011 79.8018 9.03373 80.5684 9.03373H80.7895C81.1949 9.03373 81.4971 9.08164 81.6961 9.17746C81.9025 9.26591 82.0057 9.39122 82.0057 9.55338C82.0057 9.60497 82.002 9.65657 81.9946 9.70816C81.9872 9.75239 81.9799 9.8003 81.9725 9.8519L78.7662 22.4671C78.7293 22.5998 78.6114 22.703 78.4124 22.7767C78.2133 22.843 77.9701 22.8762 77.6827 22.8762H76.2453C75.9579 22.8762 75.7146 22.843 75.5156 22.7767C75.3166 22.703 75.2024 22.5998 75.1729 22.4671L73.5587 15.6675L73.2491 14.3297L72.9063 15.6675L71.2368 22.4671C71.2 22.5998 71.0821 22.703 70.883 22.7767C70.684 22.843 70.4408 22.8762 70.1533 22.8762H68.7381Z" fill="#777E90"/>
</svg>
