<svg width="128" height="30" viewBox="0 0 128 30" fill="none" xmlns="http://www.w3.org/2000/svg">
<path d="M66.5481 29.2919V27.5384L78.9797 12.9262C79.5346 12.3118 79.9829 11.609 80.3061 10.8468C80.5885 10.1313 80.7298 9.36789 80.7219 8.59873C80.7458 7.86648 80.6183 7.13719 80.3476 6.45642C80.0768 5.77565 79.6686 5.15804 79.1483 4.64219C78.5521 4.11179 77.8568 3.70465 77.1025 3.44421C76.3482 3.18378 75.5499 3.07521 74.7534 3.12477C73.9932 3.12659 73.2368 3.23248 72.5054 3.43949C71.8126 3.63066 71.1687 3.96793 70.617 4.42863C70.066 4.90269 69.6282 5.49417 69.3357 6.15961C68.9988 6.94357 68.834 7.79063 68.8523 8.64369H66.6043C66.5937 7.65626 66.785 6.67708 67.1663 5.7662C67.5412 4.91394 68.0884 4.14853 68.7736 3.51817C69.5169 2.83949 70.3882 2.31596 71.3364 1.97827C72.4402 1.58744 73.6051 1.39711 74.7759 1.41626C75.9217 1.4001 77.062 1.57873 78.1479 1.94455C79.0796 2.25047 79.9425 2.73538 80.6882 3.37205C81.3934 3.99458 81.9569 4.76118 82.3405 5.62008C82.7405 6.56149 82.9395 7.57599 82.925 8.59873C82.9405 9.54271 82.7765 10.481 82.4417 11.3638C82.0434 12.3182 81.4887 13.1995 80.8006 13.9715L69.2233 27.5384H82.925V29.2919H66.5481Z" fill="#777E90"/>
<path d="M105.293 22.233C105.251 22.8817 105.149 23.5251 104.989 24.1551C104.826 24.7858 104.584 25.3937 104.27 25.9648C103.924 26.5766 103.476 27.1242 102.944 27.5834C101.289 28.9767 99.1699 29.6951 97.0089 29.5954C95.8491 29.6089 94.6937 29.4498 93.5807 29.1233C92.645 28.8538 91.7836 28.3731 91.0629 27.7182C89.807 26.5491 89.0569 24.936 88.9722 23.2222H91.2203C91.3781 24.5138 91.9872 25.7081 92.94 26.5942C94.116 27.4804 95.5744 27.9079 97.0427 27.7969C97.8554 27.8015 98.6636 27.6763 99.4368 27.426C100.124 27.2147 100.759 26.8626 101.303 26.3919C101.742 26.0104 102.104 25.5488 102.37 25.0318C102.615 24.5397 102.797 24.0185 102.91 23.4807C103.024 22.9364 103.096 22.3839 103.124 21.8284C103.124 21.2739 103.124 20.7344 103.124 20.2098C103.124 19.3371 103.06 18.4655 102.933 17.6021C102.814 16.7605 102.54 15.9485 102.123 15.2079C101.708 14.4857 101.106 13.888 100.381 13.477C99.4351 13.0017 98.3804 12.7846 97.3237 12.8475C96.0711 12.8096 94.8272 13.0676 93.6931 13.6006C93.2335 13.8083 92.8205 14.1064 92.4787 14.4772C92.1369 14.8479 91.8733 15.2838 91.7036 15.7587H89.7928V1.60734H104.663V3.34957H91.7036V13.151C92.4906 12.4275 93.4167 11.872 94.4255 11.5184C95.4342 11.1647 96.5045 11.0203 97.571 11.094C99.4723 10.9562 101.355 11.5425 102.843 12.7351C103.372 13.2011 103.82 13.7519 104.169 14.3649C104.5 14.9529 104.756 15.5797 104.933 16.2308C105.107 16.8788 105.224 17.5407 105.282 18.2091C105.342 18.8835 105.372 19.5429 105.372 20.1873C105.372 20.8318 105.345 21.5137 105.293 22.233Z" fill="#777E90"/>
<path d="M127.031 24.6047C126.678 25.5573 126.131 26.4261 125.424 27.1562C124.698 27.9033 123.826 28.4926 122.861 28.8872C121.758 29.3312 120.577 29.5491 119.388 29.5279C118.204 29.5474 117.027 29.3493 115.915 28.9434C114.952 28.5856 114.072 28.0348 113.33 27.3248C112.619 26.6372 112.07 25.8002 111.722 24.8745C111.351 23.8713 111.168 22.8081 111.183 21.7385C111.185 20.8251 111.318 19.9168 111.576 19.0408C111.915 17.9657 112.367 16.9295 112.925 15.9498L120.928 1.60734H123.176L116.05 14.3986C117.196 13.9378 118.423 13.7122 119.658 13.7355C120.811 13.7181 121.956 13.9242 123.03 14.3424C123.957 14.7037 124.799 15.2554 125.5 15.9621C126.201 16.6688 126.745 17.5147 127.099 18.4451C127.466 19.4143 127.649 20.4436 127.638 21.48C127.625 22.5495 127.42 23.6081 127.031 24.6047ZM124.963 19.2769C124.716 18.5564 124.334 17.889 123.839 17.3099C123.327 16.7278 122.689 16.2703 121.973 15.9723C121.146 15.6354 120.259 15.471 119.366 15.4889C118.564 15.4486 117.762 15.5768 117.013 15.8652C116.264 16.1537 115.583 16.5961 115.016 17.1637C114.463 17.7692 114.036 18.4785 113.76 19.2503C113.484 20.0222 113.365 20.8412 113.408 21.6598C113.365 22.4784 113.484 23.2974 113.76 24.0693C114.036 24.8411 114.463 25.5504 115.016 26.1559C115.583 26.7235 116.264 27.1659 117.013 27.4544C117.762 27.7428 118.564 27.871 119.366 27.8306C120.171 27.8693 120.975 27.7404 121.728 27.4521C122.48 27.1639 123.165 26.7224 123.738 26.1559C124.297 25.5537 124.729 24.8454 125.009 24.0731C125.289 23.3008 125.411 22.4802 125.368 21.6598C125.372 20.8481 125.235 20.0418 124.963 19.2769Z" fill="#777E90"/>
<path d="M4.64851 22.8513C4.64851 25.0318 6.12097 26.7403 9.47054 26.7403C12.8201 26.7403 13.4271 24.6047 13.4271 23.5481C13.4271 21.3001 11.0329 20.5583 8.51513 19.8164C5.39036 18.9622 1.77103 17.7932 1.77103 13.5107C1.77103 11.8359 3.20977 7.67703 9.20078 7.67703C15.1918 7.67703 16.3945 12.1057 16.3945 14.1626H13.1348C13.1399 13.6533 13.0383 13.1486 12.8368 12.6809C12.6352 12.2132 12.3381 11.7927 11.9645 11.4466C11.5908 11.1005 11.149 10.8363 10.6672 10.6711C10.1855 10.5059 9.67447 10.4432 9.16706 10.4871C6.69422 10.4871 4.99696 11.8471 4.99696 13.6006C4.99696 15.9723 7.46979 16.7141 9.99883 17.411C13.1236 18.2653 16.7429 19.5466 16.7429 23.6381C16.7429 26.2008 14.7871 29.5504 9.48178 29.5504C2.00707 29.5504 1.4001 23.8741 1.4001 22.9412L4.64851 22.8513Z" fill="#777E90"/>
<path d="M9.48178 30C2.68148 30 0.883057 25.3353 0.883057 22.8737V22.3567H5.15432V22.8513C5.15432 24.9981 6.72794 26.2233 9.4593 26.2233C12.4492 26.2233 12.8988 24.5485 12.8988 23.5481C12.8988 21.7722 11.179 21.1427 8.40273 20.311C5.62641 19.4792 1.24274 18.3552 1.24274 13.5669C1.24274 11.9146 2.70396 7.21619 9.18954 7.21619C15.3379 7.21619 16.9677 11.7797 16.9677 14.1851V14.7021H12.6515V14.1851C12.6637 13.7362 12.5798 13.2899 12.4052 12.8761C12.2307 12.4623 11.9696 12.0907 11.6395 11.7862C11.3095 11.4817 10.9181 11.2514 10.4916 11.1107C10.0652 10.9699 9.61352 10.9221 9.16706 10.9704C7.05391 10.9704 5.514 12.0944 5.514 13.5669C5.514 15.4552 7.42483 16.1296 10.1337 16.8827C12.6178 17.5571 17.2487 18.8273 17.2487 23.6268C17.26 26.6729 14.8209 30 9.48178 30ZM1.95087 23.3908C2.13071 24.8745 3.20977 29.0109 9.48178 29.0109C14.7984 29.0109 16.2259 25.6388 16.2259 23.6156C16.2259 19.9401 12.9438 18.7261 9.86395 17.8943C7.46979 17.2312 4.47991 16.3994 4.47991 13.5894C4.47991 11.4874 6.45818 9.95879 9.16706 9.95879C10.2566 9.86474 11.3393 10.2036 12.1808 10.9021C13.0223 11.6005 13.5549 12.6023 13.6631 13.6905H15.9112C15.6976 11.5661 14.1127 8.26152 9.16706 8.26152C2.42296 8.26152 2.25436 13.5219 2.25436 13.5781C2.25436 17.3211 5.27796 18.4563 8.65001 19.378C11.2577 20.1424 13.9441 20.9292 13.9441 23.6043C13.9441 24.4698 13.6182 27.3136 9.44806 27.3136C7.00895 27.3136 4.40123 26.2795 4.13146 23.4245L1.95087 23.3908Z" fill="#777E90"/>
<path d="M21.6886 0.517048H24.9482V9.81266C26.0723 8.48632 27.7358 7.71075 30.4672 7.71075C36.638 7.71075 38.5039 10.6669 38.5039 17.1188V29.2919H35.2442V17.4672C35.2555 12.7351 34.3787 10.4871 30.4672 10.4871C27.3424 10.4871 24.9482 11.9595 24.9482 17.5234V29.2919H21.6886V0.517048Z" fill="#777E90"/>
<path d="M39.0322 29.8089H34.7384V17.4447C34.7384 12.4429 33.7381 10.9254 30.4784 10.9254C28.1517 10.9254 25.4765 11.6673 25.4765 17.4447V29.8089H21.1716V0H25.4653V8.62121C26.924 7.59605 28.6876 7.09669 30.4672 7.20495C37.571 7.20495 39.0322 11.1727 39.0322 17.13V29.8089ZM35.7725 28.7748H38.0206V17.1188C38.0206 10.5545 36.0535 8.2278 30.5009 8.2278C29.5588 8.14332 28.6098 8.27226 27.7243 8.60502C26.8389 8.93778 26.0399 9.46581 25.3866 10.1499L24.4762 11.1727V1.05658H22.2281V28.7748H24.4762V17.4672C24.4762 12.3867 26.4544 9.91382 30.5121 9.91382C34.9408 9.91382 35.8175 12.6789 35.8175 17.4672L35.7725 28.7748Z" fill="#777E90"/>
<path d="M61.0292 21.9858C61.0292 26.2683 58.2866 29.4942 52.9025 29.4942C46.0798 29.4942 44.4274 24.6722 44.4274 18.6025C44.4274 12.3417 46.5181 7.71075 52.9025 7.71075C59.2869 7.71075 61.254 12.3754 61.254 17.0851V19.2656H47.6871C47.6871 24.245 48.946 26.7741 52.9025 26.7741C56.5556 26.7741 57.8145 24.526 57.8145 21.9858H61.0292ZM47.7321 16.5792H58.073C57.9831 12.8025 56.4657 10.4871 52.9025 10.4871C49.3394 10.4871 47.8669 12.8812 47.7321 16.5792Z" fill="#777E90"/>
<path d="M52.9025 30C44.8433 30 43.9104 23.4919 43.9104 18.5912C43.9104 11.0266 46.934 7.18247 52.9025 7.18247C58.5226 7.18247 61.771 10.7906 61.771 17.0738V19.7714H48.2154C48.339 24.4811 49.6429 26.2458 52.9025 26.2458C56.7242 26.2458 57.2974 23.5706 57.2974 21.9745V21.4575H61.5462V21.9745C61.5462 26.9314 58.2304 30 52.9025 30ZM52.9025 8.23904C47.5522 8.23904 44.9445 11.6111 44.9445 18.6137C44.9445 25.7849 47.3949 28.9884 52.9025 28.9884C57.4773 28.9884 60.2761 26.583 60.5009 22.514H58.3091C58.1067 25.5264 56.061 27.3024 52.8913 27.3024C47.9119 27.3024 47.1925 23.447 47.1588 19.2881V18.7711H60.7257V17.0851C60.7257 13.7804 59.7141 8.23904 52.9025 8.23904ZM58.6125 17.1075H47.1925V16.5792C47.26 13.5444 48.3165 9.93631 52.8801 9.93631C56.4994 9.93631 58.4215 12.1843 58.5676 16.5792L58.6125 17.1075ZM48.2716 16.1072H57.5335C57.1513 10.9929 53.9704 10.9929 52.9138 10.9929C50.0026 10.9479 48.4851 12.6227 48.2716 16.1072Z" fill="#777E90"/>
</svg>
