<svg width="145" height="30" viewBox="0 0 145 30" fill="none" xmlns="http://www.w3.org/2000/svg">
<path fill-rule="evenodd" clip-rule="evenodd" d="M14.9862 6.25002C16.6423 6.25002 18.2306 5.59152 19.4017 4.41942C20.5727 3.24731 21.2306 1.6576 21.2306 0H8.74198C8.74198 1.6576 9.39988 3.24731 10.5709 4.41942C11.7419 5.59152 13.3302 6.25002 14.9862 6.25002ZM0 21.25V8.74998C1.65609 8.74998 3.24435 9.40848 4.41538 10.5806C5.58642 11.7527 6.24426 13.3424 6.24426 15C6.24426 16.6576 5.58642 18.2473 4.41538 19.4194C3.24435 20.5915 1.65609 21.25 0 21.25ZM14.9862 21.25C18.4349 21.25 21.2306 18.4518 21.2306 15C21.2306 11.5482 18.4349 8.74998 14.9862 8.74998C11.5377 8.74998 8.74198 11.5482 8.74198 15C8.74198 18.4518 11.5377 21.25 14.9862 21.25ZM23.7283 15C23.7283 16.6576 24.3861 18.2473 25.5572 19.4194C26.7282 20.5915 28.3164 21.25 29.9725 21.25V8.74998C28.3164 8.74998 26.7282 9.40848 25.5572 10.5806C24.3861 11.7527 23.7283 13.3424 23.7283 15ZM29.9725 0V6.25002C28.3164 6.25002 26.7282 5.59152 25.5572 4.41942C24.3861 3.24731 23.7283 1.6576 23.7283 0H29.9725ZM0 6.25002C1.65609 6.25002 3.24435 5.59152 4.41538 4.41942C5.58642 3.24731 6.24426 1.6576 6.24426 0H0V6.25002ZM10.5709 25.5806C11.7419 24.4085 13.3302 23.75 14.9862 23.75C16.6423 23.75 18.2306 24.4085 19.4017 25.5806C20.5727 26.7527 21.2306 28.3424 21.2306 30H8.74198C8.74198 28.3424 9.39988 26.7527 10.5709 25.5806ZM23.7283 30H29.9725V23.75C28.3164 23.75 26.7282 24.4085 25.5572 25.5806C24.3861 26.7527 23.7283 28.3424 23.7283 30ZM0 30V23.75C1.65609 23.75 3.24435 24.4085 4.41538 25.5806C5.58642 26.7527 6.24426 28.3424 6.24426 30H0Z" fill="#777E90"/>
<path fill-rule="evenodd" clip-rule="evenodd" d="M120.156 6.71641C120.353 6.63844 120.563 6.60273 120.774 6.61146C120.985 6.60501 121.194 6.64229 121.39 6.72108C121.586 6.79988 121.765 6.91857 121.916 7.07011C122.067 7.22165 122.186 7.40292 122.268 7.60315C122.349 7.80337 122.391 8.01846 122.39 8.23559C122.39 8.67768 122.22 9.10166 121.917 9.41426C121.614 9.72686 121.203 9.90248 120.774 9.90248C120.346 9.90248 119.935 9.72686 119.632 9.41426C119.329 9.10166 119.158 8.67768 119.158 8.23559C119.155 8.01782 119.196 7.80171 119.276 7.60044C119.357 7.39917 119.477 7.21698 119.628 7.06499C119.779 6.913 119.959 6.79439 120.156 6.71641ZM40.5462 10.5435C39.1169 10.5435 38.2883 11.1205 38.2883 12.1463C38.2883 13.2706 39.5713 13.6176 41.0912 14.0285C43.3017 14.6263 46.0132 15.3594 46.0071 18.8165C46.0071 21.584 43.832 23.3577 40.7041 23.3577C37.7005 23.3577 35.1422 21.3916 34.8833 18.2075H37.6875C37.7776 18.9617 38.1379 19.654 38.6975 20.1483C39.2571 20.6426 39.9756 20.9031 40.7119 20.8787C42.1827 20.8787 43.1976 20.2056 43.1976 19.0089C43.1976 17.6515 41.7514 17.2238 40.1087 16.7379C37.9493 16.0992 35.4503 15.36 35.4503 12.2772C35.4503 9.75285 37.6979 8.06726 40.5462 8.06726C43.1977 8.06726 45.497 9.58456 45.8906 12.4909H43.1148C42.8766 11.4651 41.9341 10.5435 40.5462 10.5435ZM47.4753 17.2779C47.4753 13.7064 49.9714 11.1874 53.4308 11.1874C56.8694 11.1874 59.3862 13.7091 59.3862 17.2779C59.3862 20.8467 56.9005 23.3684 53.4308 23.3684C49.961 23.3684 47.4753 20.8494 47.4753 17.2779ZM50.1578 17.2779C50.1578 19.5004 51.5043 21.0391 53.4308 21.0391C55.3572 21.0391 56.7037 19.5004 56.7037 17.2779C56.7037 15.0554 55.3572 13.5168 53.4308 13.5168C51.5043 13.5168 50.1578 15.0554 50.1578 17.2779ZM75.0984 11.1874C73.5448 11.1874 72.074 12.0422 71.1419 13.6663C70.769 12.1677 69.3604 11.1874 67.5789 11.1874C65.8803 11.1874 64.5338 12.2346 64.0574 13.474V11.3583H61.4266V23.1975H64.0574V18.0873C64.0574 15.2905 65.0932 13.6022 66.7296 13.6022C68.0553 13.6022 68.9254 14.5853 68.9254 16.0812V23.1975H71.5768V18.0873C71.5768 15.2905 72.5919 13.6022 74.2491 13.6022C75.5437 13.6022 76.4448 14.5853 76.4448 16.0812V23.1975H79.0756V15.3947C79.0756 12.8463 77.4806 11.1874 75.0984 11.1874ZM91.2349 13.6663C92.1672 12.0422 93.6378 11.1874 95.1915 11.1874C97.5739 11.1874 99.169 12.8463 99.169 15.3947V23.1975H96.5381V16.0812C96.5381 14.5853 95.6371 13.6022 94.3422 13.6022C92.6851 13.6022 91.6703 15.2905 91.6703 18.0873V23.1975H89.0184V16.0812C89.0184 14.5853 88.1486 13.6022 86.8229 13.6022C85.1863 13.6022 84.1505 15.2905 84.1505 18.0873V23.1975H81.5201V11.3583H84.1505V13.474C84.6269 12.2346 85.9736 11.1874 87.6722 11.1874C89.4538 11.1874 90.862 12.1677 91.2349 13.6663ZM106.867 11.1661C103.076 11.1661 101.233 14.2006 101.233 17.2779C101.233 20.3552 103.242 23.3898 106.991 23.3898C109.664 23.3898 111.911 22.1503 112.398 19.3081H109.705C109.394 20.4621 108.462 21.1246 107.074 21.1246C105.261 21.1246 104.029 19.8851 103.822 17.8763H112.418C112.418 17.8763 112.48 17.2566 112.48 16.7223C112.468 14.0938 110.707 11.1661 106.867 11.1661ZM103.925 15.8862C104.278 14.1579 105.334 13.1722 106.867 13.1722C108.586 13.1722 109.601 14.3262 109.664 15.8862H103.925ZM114.394 8.06726H117.025V23.1974H114.394V8.06726ZM122.1 11.3583H119.469V23.1975H122.1V11.3583ZM129.785 11.1661C125.994 11.1661 124.151 14.2006 124.151 17.2779C124.151 20.3552 126.16 23.3898 129.91 23.3898C132.581 23.3898 134.829 22.1503 135.316 19.3081H132.623C132.312 20.4621 131.38 21.1246 129.992 21.1246C128.18 21.1246 126.947 19.8851 126.74 17.8763H135.35C135.35 17.8763 135.412 17.2566 135.412 16.7223C135.399 14.0938 133.638 11.1661 129.785 11.1661ZM126.844 15.8862C127.196 14.1579 128.252 13.1722 129.785 13.1722C131.505 13.1722 132.519 14.3262 132.581 15.8862H126.844ZM140.08 14.0297C140.557 12.2987 142.028 11.1661 143.56 11.1661C143.975 11.1661 144.534 11.2435 144.783 11.3985V14.0083C144.292 13.8181 143.774 13.7161 143.249 13.7064C141.51 13.7064 140.08 15.3119 140.08 18.8166V23.1975H137.45V11.3584H140.08V14.0297Z" fill="#777E90"/>
</svg>
