<svg width="40" height="40" viewBox="0 0 40 40" fill="none" xmlns="http://www.w3.org/2000/svg">
<path d="M18.4698 5.21286C19.0488 3.8711 20.9513 3.8711 21.5303 5.21286L25.1637 13.6327C25.4089 14.2008 25.9486 14.5864 26.5656 14.634L35.8833 15.354C37.3783 15.4695 37.9723 17.3463 36.816 18.301L29.8087 24.0864C29.3145 24.4945 29.098 25.1498 29.252 25.772L31.4085 34.4859C31.7632 35.9189 30.2173 37.0715 28.9452 36.3226L20.8456 31.5543C20.3238 31.2471 19.6763 31.2471 19.1545 31.5543L11.055 36.3226C9.78279 37.0715 8.23691 35.9189 8.59156 34.4859L10.7481 25.772C10.9021 25.1498 10.6856 24.4945 10.1914 24.0864L3.18408 18.3009C2.02781 17.3463 2.62182 15.4695 4.1168 15.354L13.4345 14.634C14.0515 14.5864 14.5912 14.2008 14.8364 13.6327L18.4698 5.21286Z" fill="#FECB33"/>
</svg>
