<svg width="40" height="40" viewBox="0 0 40 40" fill="none" xmlns="http://www.w3.org/2000/svg">
<path fill-rule="evenodd" clip-rule="evenodd" d="M19.9999 33.3333C27.3637 33.3333 33.3333 27.3638 33.3333 20C33.3333 12.6362 27.3637 6.66668 19.9999 6.66668C12.6361 6.66668 6.66659 12.6362 6.66659 20C6.66659 27.3638 12.6361 33.3333 19.9999 33.3333ZM19.9999 36.6667C29.2047 36.6667 36.6666 29.2048 36.6666 20C36.6666 10.7953 29.2047 3.33334 19.9999 3.33334C10.7952 3.33334 3.33325 10.7953 3.33325 20C3.33325 29.2048 10.7952 36.6667 19.9999 36.6667Z" fill="#FECB33"/>
<path fill-rule="evenodd" clip-rule="evenodd" d="M19.9999 10C20.9204 10 21.6666 10.7462 21.6666 11.6667V19.3096L25.3451 22.9882C25.996 23.639 25.996 24.6943 25.3451 25.3452C24.6942 25.9961 23.6389 25.9961 22.9881 25.3452L18.8214 21.1785C18.5088 20.866 18.3333 20.442 18.3333 20V11.6667C18.3333 10.7462 19.0794 10 19.9999 10Z" fill="#FECB33"/>
</svg>
