<svg width="40" height="40" viewBox="0 0 40 40" fill="none" xmlns="http://www.w3.org/2000/svg">
<path fill-rule="evenodd" clip-rule="evenodd" d="M31.3633 23.5414C30.336 22.3502 28.5714 22.4116 27.1916 23.1668C25.0564 24.3355 22.6058 25 20 25C17.3942 25 14.9436 24.3355 12.8084 23.1668C11.4286 22.4116 9.66402 22.3502 8.63667 23.5414C6.37037 26.169 5 29.5911 5 33.3333V35C5 36.8409 6.49238 38.3333 8.33333 38.3333H31.6667C33.5076 38.3333 35 36.8409 35 35V33.3333C35 29.5911 33.6296 26.169 31.3633 23.5414Z" fill="#FECB33"/>
<path d="M28.3332 10C28.3332 14.6024 24.6022 18.3334 19.9998 18.3334C15.3975 18.3334 11.6665 14.6024 11.6665 10C11.6665 5.39765 15.3975 1.66669 19.9998 1.66669C24.6022 1.66669 28.3332 5.39765 28.3332 10Z" fill="#FECB33"/>
</svg>
