<svg width="921" height="842" viewBox="0 0 921 842" fill="none" xmlns="http://www.w3.org/2000/svg">
<path d="M253.245 175.635L350.702 4.17965C352.17 1.59598 354.913 0 357.885 0H559.597C565.951 0 569.927 6.87179 566.761 12.3803L468.214 183.836C466.74 186.4 464.008 187.981 461.05 187.981H260.428C254.092 187.981 250.114 181.144 253.245 175.635Z" fill="black"/>
<path d="M2.01753 613.087L99.4747 441.631C100.943 439.048 103.686 437.452 106.658 437.452H308.37C314.723 437.452 318.7 444.323 315.534 449.832L216.987 621.287C215.513 623.852 212.781 625.433 209.823 625.433H9.20096C2.86496 625.433 -1.11346 618.595 2.01753 613.087Z" fill="black"/>
<path d="M606.368 829.177L703.825 657.722C705.294 655.138 708.037 653.542 711.009 653.542H912.72C919.074 653.542 923.05 660.414 919.884 665.922L821.337 837.378C819.863 839.942 817.131 841.523 814.173 841.523H613.552C607.216 841.523 603.237 834.686 606.368 829.177Z" fill="black"/>
<path d="M821.6 829.177L724.142 657.722C722.674 655.138 719.931 653.542 716.959 653.542H515.247C508.894 653.542 504.917 660.414 508.084 665.922L606.63 837.378C608.104 839.942 610.837 841.523 613.794 841.523H814.416C820.752 841.523 824.731 834.686 821.6 829.177Z" fill="black"/>
<path d="M446.595 651.805L347.048 828.531C345.584 831.131 342.832 832.739 339.848 832.739H127.376C120.937 832.739 116.972 825.701 120.309 820.194L229.808 639.487H439.396C445.717 639.487 449.697 646.297 446.595 651.805Z" fill="black"/>
<path d="M334.929 831.092L229.31 648.406C227.822 645.832 227.832 642.656 229.336 640.091L334.954 459.966C338.122 454.564 345.915 454.512 349.154 459.873L457.997 639.998C459.575 642.61 459.586 645.879 458.024 648.5L349.181 831.186C345.952 836.605 338.086 836.553 334.929 831.092Z" fill="black"/>
<path d="M621.812 447.992C633.131 467.373 655.205 505.414 666.384 526.349L687.637 527.048C688.686 527.083 689.313 528.231 688.774 529.132L671.392 558.19C671.136 558.619 670.668 558.875 670.168 558.86L637.458 557.863C636.429 557.832 635.797 556.722 636.295 555.82L646.404 537.537L600.254 455.12L504.472 623.628C501.341 629.136 505.32 635.974 511.656 635.974H712.278C715.235 635.974 717.968 634.393 719.441 631.828L817.988 460.373C821.154 454.864 817.178 447.992 810.825 447.992H621.812Z" fill="black"/>
<path d="M375.322 395.287C386.641 375.907 408.715 337.866 419.894 316.931L441.147 316.232C442.196 316.197 442.823 315.049 442.284 314.149L424.902 285.09C424.646 284.661 424.178 284.405 423.678 284.42L390.968 285.417C389.939 285.448 389.307 286.558 389.805 287.46L399.914 305.743L353.764 388.16L257.982 219.652C254.851 214.144 258.83 207.306 265.166 207.306H465.788C468.745 207.306 471.478 208.887 472.951 211.452L571.498 382.907C574.664 388.416 570.688 395.287 564.335 395.287H375.322Z" fill="black"/>
<path d="M412.708 284.754L423.679 284.42C424.179 284.405 424.646 284.661 424.902 285.09L442.285 314.148C442.824 315.049 442.197 316.197 441.148 316.232L419.895 316.931C408.716 337.866 386.641 375.907 375.322 395.287L564.703 395.288C567.661 395.288 570.393 393.707 571.867 391.142L670.414 219.687C673.58 214.178 669.603 207.306 663.25 207.306H461.538C458.566 207.306 455.823 208.902 454.355 211.486L412.708 284.754Z" fill="black"/>
</svg>
